<?xml version="1.0" standalone="no"?>
<!DOCTYPE svg PUBLIC "-//W3C//DTD SVG 20010904//EN"
 "http://www.w3.org/TR/2001/REC-SVG-20010904/DTD/svg10.dtd">
<svg version="1.0" xmlns="http://www.w3.org/2000/svg"
 width="260.000000pt" height="260.000000pt" viewBox="0 0 260.000000 260.000000"
 preserveAspectRatio="xMidYMid meet">
<metadata>
Created by potrace 1.11, written by Peter Selinger 2001-2013
</metadata>
<g transform="translate(0.000000,260.000000) scale(0.100000,-0.100000)"
fill="#000000" stroke="none">
<path d="M1085 2288 c-344 -64 -660 -304 -682 -520 -7 -71 12 -135 51 -174 34
-34 78 -50 165 -61 49 -6 54 -5 47 12 -33 87 -32 205 3 308 41 119 154 242
267 293 106 47 274 67 369 43 53 -13 119 -67 145 -119 29 -57 41 -152 30 -233
-29 -200 -141 -372 -285 -438 -33 -16 -85 -25 -85 -16 1 33 116 583 139 664 8
27 6 34 -13 46 -78 52 -205 46 -266 -11 -50 -47 -105 -256 -215 -806 -40 -204
-105 -499 -145 -655 -39 -155 -69 -285 -67 -287 10 -10 142 17 189 39 100 46
148 102 186 217 20 61 102 389 152 613 l22 97 47 0 c139 1 303 73 412 180 113
112 170 242 170 390 0 138 -44 240 -135 315 -115 94 -322 137 -501 103z"/>
<path d="M1625 1169 c-233 -33 -399 -269 -351 -499 28 -134 111 -242 228 -299
260 -126 561 31 607 317 45 278 -200 521 -484 481z"/>
</g>
</svg>
