<svg xmlns="http://www.w3.org/2000/svg" xmlns:xlink="http://www.w3.org/1999/xlink" width="721.78" height="721.78" viewBox="0 0 721.78 721.78"><defs><style>.cls-1,.cls-2,.cls-6{fill:none;}.cls-2{clip-rule:evenodd;}.cls-3{clip-path:url(#clip-path);}.cls-4{clip-path:url(#clip-path-2);}.cls-5{fill:#fff;}.cls-6{stroke:#feccb9;stroke-miterlimit:10;stroke-width:2px;}.cls-7{clip-path:url(#clip-path-4);}.cls-8{isolation:isolate;}.cls-9{clip-path:url(#clip-path-6);}.cls-10{clip-path:url(#clip-path-7);}.cls-11{fill:#552a22;}.cls-12{clip-path:url(#clip-path-9);}.cls-13{clip-path:url(#clip-path-11);}.cls-14{clip-path:url(#clip-path-13);}.cls-15{clip-path:url(#clip-path-15);}.cls-16{clip-path:url(#clip-path-17);}.cls-17{clip-path:url(#clip-path-19);}.cls-18{clip-path:url(#clip-path-21);}.cls-19{clip-path:url(#clip-path-23);}.cls-20{clip-path:url(#clip-path-25);}.cls-21{clip-path:url(#clip-path-27);}.cls-22{clip-path:url(#clip-path-29);}.cls-23{clip-path:url(#clip-path-31);}.cls-24{clip-path:url(#clip-path-33);}.cls-25{clip-path:url(#clip-path-35);}.cls-26{clip-path:url(#clip-path-37);}.cls-27{clip-path:url(#clip-path-39);}</style><clipPath id="clip-path" transform="translate(-416 -7940)"><circle class="cls-1" cx="776.89" cy="8300.89" r="350.89"/></clipPath><clipPath id="clip-path-2" transform="translate(-416 -7940)"><rect class="cls-1" width="2720" height="11888"/></clipPath><clipPath id="clip-path-4" transform="translate(-416 -7940)"><rect class="cls-1" x="543.24" y="8147.41" width="193.99" height="190.89"/></clipPath><clipPath id="clip-path-6" transform="translate(-416 -7940)"><rect class="cls-1" x="543" y="8147" width="195" height="192"/></clipPath><clipPath id="clip-path-7" transform="translate(-416 -7940)"><path class="cls-2" d="M569.13,8215.26q.09,3.51-1.74,4.72a5.44,5.44,0,0,1-4.67.41,20.3,20.3,0,0,1-6.22-3.26,34.62,34.62,0,0,1-11.17-14,24.22,24.22,0,0,1-2.08-9.31,27.43,27.43,0,0,1,5.43-16.91q5.66-7.94,17.6-13.79t30.67-9.53q18.73-3.68,44.45-4.31a16.51,16.51,0,0,1,5.2,1.14,32.76,32.76,0,0,1,6.61,3.15,21.62,21.62,0,0,1,5.18,4.36q2,2.39.7,4.57-3.36,5.93-5.68,10.86t-4.25,9.37q-1.94,4.44-3.4,8.47t-3.11,8.36q-2,5.71-3.92,11.21T635.21,8222q1.56.16,3.13.21t3.12,0q13.48.84,23.81,1t18.51-.46q4.7-14.93,10-28.62t10.13-24a131.93,131.93,0,0,1,8.86-16.5q4-6.14,6.18-6.2a14.69,14.69,0,0,1,4.72,1.54,37.9,37.9,0,0,1,7,4.12,21,21,0,0,1,5.51,5.81,5.89,5.89,0,0,1,0,6.63,199.46,199.46,0,0,0-15.13,27.09,251.89,251.89,0,0,0-10.27,26.19q-1.62,5.7-2.69,9.53t-2.15,7.85q-1.07,4-2.31,9.32t-3,13.92a227.35,227.35,0,0,0-3.55,25.92,71.79,71.79,0,0,0,.4,16q1,5.93,3.42,8.4a9.74,9.74,0,0,0,5.34,3,14.16,14.16,0,0,0,6.13-.34q3.2-.86,5.81-1.51a11.4,11.4,0,0,1,4.28-.4c1.11.17,1.69,1.16,1.73,3q.21,8.57-3.47,13.54a24.48,24.48,0,0,1-8.49,7.43,31,31,0,0,1-9.38,3.16,60.3,60.3,0,0,1-6.13.74q-12.67.31-18.92-8.11t-7.57-22.43a134.87,134.87,0,0,1,1.26-31.82,333.15,333.15,0,0,1,7.39-36.26,12.94,12.94,0,0,0-2.73-.13q-14.46-1-25.67-1.22t-20.57,0q-3.79,12.58-7.52,23.29a113.39,113.39,0,0,1-8.22,18.63,40.51,40.51,0,0,1-10.42,12.45,23.6,23.6,0,0,1-14.12,4.74q-8.38.21-13.91-2.58a27.09,27.09,0,0,1-8.85-6.8,23.21,23.21,0,0,1-4.6-8.66,27.86,27.86,0,0,1-1.18-8.16,9.38,9.38,0,0,1,1.33-5.2q1.22-1.68,3.22.21,5.79,5.52,11,5.77a13.51,13.51,0,0,0,9.66-3.55,38.66,38.66,0,0,0,8.41-10.93,152.65,152.65,0,0,0,7.6-16.18,61.9,61.9,0,0,0-10.27,2.89,31.06,31.06,0,0,0-6.16,3.17,12.54,12.54,0,0,0-3.33,3.2,23.9,23.9,0,0,0-1.59,2.77,14.52,14.52,0,0,1-1,1.88,1.69,1.69,0,0,1-1.45.72,5.65,5.65,0,0,1-3.16-1.58,15.28,15.28,0,0,1-3-3.92,21.14,21.14,0,0,1-2.2-6,27.55,27.55,0,0,1-.49-7.79q.39-7.81,10.84-11.29t29-3.93q4.71-14.54,9-29.08a240.5,240.5,0,0,1,8.93-25.38,142.41,142.41,0,0,0-24.95,4.51,71,71,0,0,0-16.7,6.95,34.38,34.38,0,0,0-9.93,8.53,32.11,32.11,0,0,0-4.94,9.39,35.91,35.91,0,0,0-1.71,9.7q-.17,4.88-.07,9.17"/></clipPath><clipPath id="clip-path-9" transform="translate(-416 -7940)"><path class="cls-2" d="M794.9,8229.11q3.18-5.53,5.7-6.17t3.57,2.24q1,2.9.21,8.65A41.2,41.2,0,0,1,800,8246.5a101.78,101.78,0,0,1-10.63,15.83,53.65,53.65,0,0,1-10,9.49,21.35,21.35,0,0,1-9.17,3.93,18,18,0,0,1-8.5-.86,52,52,0,0,1-12.73,9.56q-6.26,3.17-10.74,3.48-10.7.85-17.05-3.57a24.15,24.15,0,0,1-9.07-11.84,41.12,41.12,0,0,1-2.17-16.68,78.36,78.36,0,0,1,3.35-18.38,73.49,73.49,0,0,1,7.58-16.92,43,43,0,0,1,10.72-12.23q-.05-2.13,2.22-5a28.14,28.14,0,0,1,6-5.5,40.09,40.09,0,0,1,8.57-4.49,29.21,29.21,0,0,1,9.9-2,18.64,18.64,0,0,1,12.19,4.17,28.33,28.33,0,0,1,8.68,12,46.19,46.19,0,0,1,2.89,18.32,71.17,71.17,0,0,1-4.8,23q8.27-4.48,17.65-19.7m-56.52,40.67a19.76,19.76,0,0,0,11.6-4.19,68.24,68.24,0,0,1-9.07-15.86,127.32,127.32,0,0,1-6.22-18.86,42,42,0,0,0-4,10.34,50.35,50.35,0,0,0-1.82,13,26.62,26.62,0,0,0,2,11.07q2.06,4.63,7.52,4.49m23.84-21.65a59.44,59.44,0,0,0,3.52-15.3,45.34,45.34,0,0,0-.75-14.61,23.8,23.8,0,0,0-5.44-10.88q-3.91-4.29-10.53-4.13-2.53.06-2.79,5.63a46.31,46.31,0,0,0,1.59,13,77.68,77.68,0,0,0,5.44,15,28.3,28.3,0,0,0,9,11.28"/></clipPath><clipPath id="clip-path-11" transform="translate(-416 -7940)"><path class="cls-2" d="M892.56,8188.36a26.87,26.87,0,0,1,7.24.8,32.9,32.9,0,0,1,6.39,2.28,15.57,15.57,0,0,1,4.56,3.2,5.71,5.71,0,0,1,1.75,3.76,56.67,56.67,0,0,1-1.76,7.74q-1.78,6.77-5.06,16.31t-7.88,20.48a149.41,149.41,0,0,1-10.32,20.24,75.54,75.54,0,0,1-12.29,15.51q-6.57,6.21-13.59,6.38-10.13.25-16-6a36.7,36.7,0,0,1-8.5-16.36,69.61,69.61,0,0,1-4.59,7.81,44.39,44.39,0,0,1-6.44,7.57,35,35,0,0,1-8.43,5.86,24.24,24.24,0,0,1-10.37,2.5,12.67,12.67,0,0,1-12.16-6.82q-4-7-4.92-17.72a106,106,0,0,1,.69-23.13,162.52,162.52,0,0,1,4.7-23.12,97.88,97.88,0,0,1,6.77-17.91q3.72-7.21,7.23-7.29a16.92,16.92,0,0,1,4.71,1.25,41.83,41.83,0,0,1,6.91,3.24,22.05,22.05,0,0,1,5.47,4.35q2.11,2.39.21,4.58-1.33,1.4-3.45,6.52a121.48,121.48,0,0,0-4.1,11.8q-2,6.68-3.65,14.13a101.72,101.72,0,0,0-2.2,13.7,35,35,0,0,0,.35,10.23q.88,4,4,3.9a6.8,6.8,0,0,0,4.05-1.76A26.67,26.67,0,0,0,826,8258a66.76,66.76,0,0,0,4.14-6q2.06-3.36,3.74-6.72a67.49,67.49,0,0,1,.35-17.46,99.9,99.9,0,0,1,4.13-18.14,63.51,63.51,0,0,1,6.57-14.3q3.75-5.84,7.65-5.94a17.43,17.43,0,0,1,5,1.24,40.21,40.21,0,0,1,7,3.24,22,22,0,0,1,5.47,4.35q2.11,2.38.21,4.58a45.37,45.37,0,0,0-5.35,8.52,100.7,100.7,0,0,0-4.89,11.43,120.5,120.5,0,0,0-3.69,12.28,61.22,61.22,0,0,0-1.77,11.26,22.69,22.69,0,0,0,.89,8.46q1.15,3.38,4.28,3.5,3.71.3,7.1-4.76a66.36,66.36,0,0,0,6.41-12.83q3-7.78,5.82-16.91t5.14-17q2.34-7.86,4.45-13.08t3.87-5.26"/></clipPath><clipPath id="clip-path-13" transform="translate(-416 -7940)"><path class="cls-2" d="M639.32,8321.4q1.68,0,1.68,1.77a13.13,13.13,0,0,1-.62,3.81,56.37,56.37,0,0,1-2.21,5.49,36,36,0,0,1-4.69,7.08,28.18,28.18,0,0,1-5.49,4.82,12.45,12.45,0,0,1-7.17,2.17,5.58,5.58,0,0,1-4.43-1.81,10.26,10.26,0,0,1-2.21-4.78,26,26,0,0,1-.4-6.77,55.3,55.3,0,0,1,1-7.75,69.25,69.25,0,0,1,2-7.75,61.44,61.44,0,0,1,2.61-6.77,24.75,24.75,0,0,1,2.79-4.78q1.42-1.81,2.57-1.81a7.28,7.28,0,0,1,2.08.62,20.15,20.15,0,0,1,3.05,1.55,9.8,9.8,0,0,1,2.39,2,1.35,1.35,0,0,1,.09,1.95,28.17,28.17,0,0,0-2.52,3.85,47.42,47.42,0,0,0-2.52,5.22q-1.15,2.79-2,5.62a31.16,31.16,0,0,0-1.2,5.18,9.9,9.9,0,0,0,.09,3.81,1.75,1.75,0,0,0,1.82,1.46q1.6,0,3.54-2.21t3.9-4.87q1.95-2.66,3.5-4.87t2.35-2.21m-9.21-20.54a5,5,0,0,1-1.86-4.21,9.39,9.39,0,0,1,1.86-5.44,9.84,9.84,0,0,1,4.6-3.5,4.7,4.7,0,0,1,4.52.4,4.85,4.85,0,0,1,1.81,4.2,9.29,9.29,0,0,1-1.9,5.36,9,9,0,0,1-4.52,3.54,5,5,0,0,1-4.52-.35"/></clipPath><clipPath id="clip-path-15" transform="translate(-416 -7940)"><path class="cls-2" d="M654.73,8303q4.6.71,6.37,3.54a12,12,0,0,1,1.77,6.46,12.71,12.71,0,0,1-.62,3.76,16.58,16.58,0,0,1-1.64,3.68,9.9,9.9,0,0,1-2.39,2.75,4.64,4.64,0,0,1-2.88,1.06,3.54,3.54,0,0,1-2.7-1.2,7.38,7.38,0,0,1-1.59-2.57,4.91,4.91,0,0,1-.27-2.57q.22-1.2,1.2-1.2a4.78,4.78,0,0,0,3.23-1.28,8.91,8.91,0,0,0,2.21-2.88,4.34,4.34,0,0,0,.44-2.88q-.31-1.28-2-1.28a6.88,6.88,0,0,0-6,2.75,11,11,0,0,0-1.95,6.55,8.19,8.19,0,0,0,1.2,4.29q1.19,2,2.66,4.07a43.83,43.83,0,0,1,2.7,4.38,11.17,11.17,0,0,1-2,13q-3.28,3.1-9.12,3.1a7.72,7.72,0,0,1-4.87-1.33,5.73,5.73,0,0,1-2.12-2.92,4.28,4.28,0,0,1,.13-2.92,2,2,0,0,1,1.9-1.33c.35,0,.54.15.58.44s0,.61,0,.93a1.77,1.77,0,0,0,.27.93q.27.45,1.42.44a2.12,2.12,0,0,0,2.08-1.15,6.51,6.51,0,0,0,.58-2.92,8.13,8.13,0,0,0-1.15-4.12q-1.15-2-2.48-4.16a45.7,45.7,0,0,1-2.48-4.65,12.85,12.85,0,0,1-1.15-5.49,14.71,14.71,0,0,1,1.51-6.6,15.56,15.56,0,0,1,4.07-5.18,16.33,16.33,0,0,1,5.93-3.1,17.08,17.08,0,0,1,7.17-.44"/></clipPath><clipPath id="clip-path-17" transform="translate(-416 -7940)"><path class="cls-2" d="M790.57,8318.7q1.33,0,1.56,1.58a9.59,9.59,0,0,1-.52,4,28.15,28.15,0,0,1-2.33,5.27,31.25,31.25,0,0,1-3.73,5.33,22.36,22.36,0,0,1-4.8,4.18,10.58,10.58,0,0,1-5.53,1.79,4.18,4.18,0,0,1-2.45-.71,7,7,0,0,1-1.94-1.94,10.47,10.47,0,0,1-1.29-2.73,11.23,11.23,0,0,1-.53-3.09,20.09,20.09,0,0,1,.46-4.7,47.82,47.82,0,0,1,1.31-4.91q.78-2.42,1.61-4.62t1.37-3.88a10.87,10.87,0,0,0,.59-2.67c0-.66-.22-1-.77-1a4.77,4.77,0,0,0-3.42,2,22.43,22.43,0,0,0-3,4.68,42.8,42.8,0,0,0-2.39,6,44.49,44.49,0,0,0-1.47,5.71,18.18,18.18,0,0,0-.41,4.17q.05,1.95.09,3.38a10.6,10.6,0,0,1-.13,2.25,1,1,0,0,1-1,.84,9.2,9.2,0,0,1-3.93-.59,5.46,5.46,0,0,1-2.3-1.79,6.19,6.19,0,0,1-1.06-2.52,17.46,17.46,0,0,1-.29-2.72q-.85,1.36-2.13,3a25,25,0,0,1-2.9,3.17,16.91,16.91,0,0,1-3.55,2.51,9.3,9.3,0,0,1-4.14,1.08,3,3,0,0,1-2.16-.86,8,8,0,0,1-1.72-2.35,14.46,14.46,0,0,1-1.16-3.22,17,17,0,0,1-.46-3.46,36.76,36.76,0,0,1,.52-6.77q.6-3.74,1.64-7.68t2.37-7.93q1.33-4,2.79-7.49-2.07.06-4,0a23.61,23.61,0,0,0-3.76.25,13.77,13.77,0,0,0-3.48,1,9.67,9.67,0,0,0-3.15,2.3,2.58,2.58,0,0,1-.76.57,1.23,1.23,0,0,1-.77.13,1,1,0,0,1-.64-.5,2.87,2.87,0,0,1-.3-1.4,7.35,7.35,0,0,1,1.41-5.09,8.34,8.34,0,0,1,4.18-2.55,26.35,26.35,0,0,1,6.29-.91q3.61-.13,7.82-.25a36.38,36.38,0,0,1,2.86-4.69q1.32-1.77,2.13-1.79a6.28,6.28,0,0,1,1.9.5,17.08,17.08,0,0,1,2.69,1.3,8.35,8.35,0,0,1,2.11,1.71,1.28,1.28,0,0,1,.16,1.77,3.87,3.87,0,0,1-.43.67,10.12,10.12,0,0,0-.64,1q1.92.17,3.85.38l3.63.38a34.94,34.94,0,0,1,6.4-7.74,10.89,10.89,0,0,1,6.82-3.1q.22,0,1.41.15a7.69,7.69,0,0,1,2.5.82,7.57,7.57,0,0,1,2.42,2,6.32,6.32,0,0,1,1.17,3.88,8.69,8.69,0,0,1-.48,2.85,6.87,6.87,0,0,1-2.1,3,13.61,13.61,0,0,1-4.51,2.45,25.42,25.42,0,0,1-7.65,1.17q-.84,1.72-1.5,3.25t-1.22,2.65q-.63,1.34-1.11,2.46a14.91,14.91,0,0,1,4.51-4,12.75,12.75,0,0,1,5.45-1.88,6.28,6.28,0,0,1,4.61,1.35q2,1.57,2.07,5.62a14.52,14.52,0,0,1-.45,3.76q-.5,2.07-1.22,4.23t-1.47,4.23a37.94,37.94,0,0,0-1.16,3.67,8.66,8.66,0,0,0-.34,2.55.88.88,0,0,0,1,.93,2.82,2.82,0,0,0,1.63-.93,19,19,0,0,0,2-2.31q1.07-1.39,2.17-3t2.1-3q1-1.39,1.78-2.3t1.23-.92M755,8321.16a66.65,66.65,0,0,1,2.51-9.53,76,76,0,0,1,4-9.57q-1.92-.1-3.81-.15t-3.81-.16q-1.4,2.84-2.9,6.19t-2.81,6.74q-1.31,3.39-2.3,6.54a48.6,48.6,0,0,0-1.44,5.6,11.39,11.39,0,0,0-.19,3.91c.17,1,.68,1.46,1.52,1.43.44,0,1.06-.44,1.85-1.3a37.09,37.09,0,0,0,2.47-3q1.28-1.72,2.6-3.6t2.32-3.08m18.09-24.43a1.91,1.91,0,0,1-.18.3l-.25.38a17.89,17.89,0,0,0,6.47-.91,3.6,3.6,0,0,0,2.41-3.83,2.4,2.4,0,0,0-.79-2,2.86,2.86,0,0,0-1.78-.5,3,3,0,0,0-1.82,1,14.46,14.46,0,0,0-1.86,2.16q-.85,1.2-1.49,2.22a8.75,8.75,0,0,0-.7,1.24"/></clipPath><clipPath id="clip-path-19" transform="translate(-416 -7940)"><path class="cls-2" d="M795.14,8340.28a8.33,8.33,0,0,1-3.2-.8,9.89,9.89,0,0,1-3.2-2.35,13.31,13.31,0,0,1-2.51-4.07,16.79,16.79,0,0,1-1.12-5.95,21.2,21.2,0,0,1,1.68-9,28.45,28.45,0,0,1,4.53-7.39,23.33,23.33,0,0,1,5.88-5,12.34,12.34,0,0,1,5.82-1.93q3.91-.11,5.74,2.13t1.2,6a9.92,9.92,0,0,1-2,4.33,22.59,22.59,0,0,1-4,4.13,25.61,25.61,0,0,1-4.86,3.12,11.34,11.34,0,0,1-4.61,1.31,7.23,7.23,0,0,0,.63,4.08,3.18,3.18,0,0,0,3.22,1.57,8.92,8.92,0,0,0,5.56-2,24,24,0,0,0,4.09-4.24,42.82,42.82,0,0,0,2.8-4.21q1.09-1.91,1.76-1.93a1.52,1.52,0,0,1,1.7,1.58,9.7,9.7,0,0,1-.77,4.12,30.3,30.3,0,0,1-2.73,5.39,32,32,0,0,1-4.25,5.39,23.53,23.53,0,0,1-5.35,4.13,12.21,12.21,0,0,1-6,1.64m9.77-32.15a4.35,4.35,0,0,0-2.3.84,11.53,11.53,0,0,0-2.34,2.17,20.71,20.71,0,0,0-2.13,3.08q-1,1.72-1.82,3.59a16.84,16.84,0,0,0,5.06-2.61,17.13,17.13,0,0,0,3.31-3.23,5.91,5.91,0,0,0,1.29-2.73c.08-.76-.28-1.14-1.06-1.12"/></clipPath><clipPath id="clip-path-21" transform="translate(-416 -7940)"><path class="cls-2" d="M860.77,8302.27a10.17,10.17,0,0,1,2.74.3,12.41,12.41,0,0,1,2.42.86,5.82,5.82,0,0,1,1.73,1.21,2.16,2.16,0,0,1,.67,1.42,21.65,21.65,0,0,1-.66,2.93q-.67,2.57-1.9,6.18t-3,7.76a56.24,56.24,0,0,1-3.89,7.67,28.63,28.63,0,0,1-4.64,5.89,7.79,7.79,0,0,1-5.14,2.43,7.66,7.66,0,0,1-6.08-2.27,13.91,13.91,0,0,1-3.23-6.19,26.46,26.46,0,0,1-1.73,3,16.64,16.64,0,0,1-2.43,2.87,13.24,13.24,0,0,1-3.19,2.23,9.18,9.18,0,0,1-3.93,1,4.8,4.8,0,0,1-4.61-2.57,16.51,16.51,0,0,1-1.88-6.71,40.14,40.14,0,0,1,.25-8.75,61.43,61.43,0,0,1,1.76-8.76,37,37,0,0,1,2.55-6.79q1.4-2.73,2.73-2.77a6.47,6.47,0,0,1,1.78.47,15.85,15.85,0,0,1,2.62,1.22,8.33,8.33,0,0,1,2.07,1.64,1.19,1.19,0,0,1,.08,1.73,9.34,9.34,0,0,0-1.3,2.47,45.81,45.81,0,0,0-1.54,4.47q-.74,2.53-1.37,5.35a38.46,38.46,0,0,0-.82,5.19,13.19,13.19,0,0,0,.14,3.87q.34,1.5,1.52,1.48a2.6,2.6,0,0,0,1.53-.67,10.06,10.06,0,0,0,1.58-1.67,25.24,25.24,0,0,0,1.56-2.29q.78-1.27,1.41-2.55a25.61,25.61,0,0,1,.12-6.61,37.73,37.73,0,0,1,1.55-6.87,24,24,0,0,1,2.47-5.42q1.42-2.22,2.89-2.26a6.65,6.65,0,0,1,1.9.47,15.43,15.43,0,0,1,2.65,1.22,8.41,8.41,0,0,1,2.07,1.64,1.18,1.18,0,0,1,.08,1.73,17.19,17.19,0,0,0-2,3.23,38.36,38.36,0,0,0-1.84,4.33,45.37,45.37,0,0,0-1.39,4.65,23,23,0,0,0-.66,4.26,8.58,8.58,0,0,0,.34,3.2,1.7,1.7,0,0,0,1.62,1.32q1.41.11,2.68-1.81a25.09,25.09,0,0,0,2.42-4.86q1.14-2.94,2.19-6.41t1.93-6.44q.88-3,1.68-5c.53-1.32,1-2,1.46-2"/></clipPath><clipPath id="clip-path-23" transform="translate(-416 -7940)"><path class="cls-2" d="M899.07,8315.75c.8-1.4,1.52-2.17,2.15-2.34s1.08.12,1.35.85a7.23,7.23,0,0,1,.09,3.28,15.62,15.62,0,0,1-1.64,4.8,38.36,38.36,0,0,1-4,6,20.43,20.43,0,0,1-3.78,3.6,8.06,8.06,0,0,1-3.47,1.49,6.79,6.79,0,0,1-3.22-.32,19.64,19.64,0,0,1-4.81,3.63,11,11,0,0,1-4.06,1.32,9.7,9.7,0,0,1-6.46-1.33,9.14,9.14,0,0,1-3.44-4.48,15.55,15.55,0,0,1-.83-6.31,29.66,29.66,0,0,1,1.25-7,27.93,27.93,0,0,1,2.85-6.42,16.28,16.28,0,0,1,4-4.64,3.15,3.15,0,0,1,.84-1.9,10.62,10.62,0,0,1,2.27-2.09,15.36,15.36,0,0,1,3.24-1.71,11.06,11.06,0,0,1,3.75-.76,7,7,0,0,1,4.62,1.57,10.71,10.71,0,0,1,3.3,4.55,17.46,17.46,0,0,1,1.11,6.93,26.88,26.88,0,0,1-1.8,8.7q3.13-1.7,6.66-7.47m-21.36,15.44a7.47,7.47,0,0,0,4.39-1.59,26,26,0,0,1-3.45-6,48.2,48.2,0,0,1-2.37-7.14,15.81,15.81,0,0,0-1.52,3.92,19.06,19.06,0,0,0-.68,4.93,10.09,10.09,0,0,0,.78,4.19,2.77,2.77,0,0,0,2.85,1.7m9-8.21a22.48,22.48,0,0,0,1.32-5.79,17.16,17.16,0,0,0-.3-5.53,9,9,0,0,0-2.07-4.11,5,5,0,0,0-4-1.55q-1,0-1.05,2.13a17.55,17.55,0,0,0,.61,4.93,29.47,29.47,0,0,0,2.07,5.67,10.75,10.75,0,0,0,3.4,4.26"/></clipPath><clipPath id="clip-path-25" transform="translate(-416 -7940)"><path class="cls-2" d="M926.07,8315a1.22,1.22,0,0,1,1,.38,2.07,2.07,0,0,1,.44,1.09,5.85,5.85,0,0,1,0,1.55q-.13.85-.32,1.74a30.27,30.27,0,0,1-1.72,4.84,32.56,32.56,0,0,1-4,6.11A22.82,22.82,0,0,1,917,8335a10.58,10.58,0,0,1-5.81,2.09,5,5,0,0,1-2.75-.67,5.7,5.7,0,0,1-2-1.94,8.13,8.13,0,0,1-1.07-2.89,10,10,0,0,1,0-3.51,18.69,18.69,0,0,1,.8-3.16q.68-2.12,1.53-4.65t1.78-5.14l1.65-4.66q.72-2,1.06-3.2t0-.77a14.11,14.11,0,0,1-4.79,3.15,32.69,32.69,0,0,1-1.84,4.41q-1.15,2.32-2.42,4.53t-2.47,4.09q-1.2,1.88-1.91,3.15-.56,1-1.09.4a3.85,3.85,0,0,1-.79-1.86,11,11,0,0,1-.15-2.87,5.87,5.87,0,0,1,.67-2.57q1.06-1.8,2.25-4.23t2.16-4.89a5.65,5.65,0,0,1-2.87-2.58,6.36,6.36,0,0,1-.27-4.72,7.67,7.67,0,0,1,2.25-4,6.5,6.5,0,0,1,4.46-1.71,3.51,3.51,0,0,1,2.57.71,3.6,3.6,0,0,1,1,1.85,6.69,6.69,0,0,1,.1,2.32c-.1.81-.22,1.52-.35,2.11l3.53-2a6.33,6.33,0,0,1,2.23-.94,3.57,3.57,0,0,1,1.75.47,6.15,6.15,0,0,1,1.73,1.39,8,8,0,0,1,1.35,2.17,7.36,7.36,0,0,1,.59,2.74,14.58,14.58,0,0,1-.46,3.66,44.18,44.18,0,0,1-1.25,4.31q-.75,2.19-1.54,4.35c-.53,1.44-1,2.72-1.34,3.83a17.82,17.82,0,0,0-.7,2.7c-.1.69,0,1,.43,1a3.26,3.26,0,0,0,2-.94,16.06,16.06,0,0,0,2.11-2.31q1.07-1.39,2.13-3l2-3q.92-1.39,1.63-2.29t1.16-.92"/></clipPath><clipPath id="clip-path-27" transform="translate(-416 -7940)"><path class="cls-2" d="M928.94,8336.61a5.05,5.05,0,0,1-2.72-.85,13.16,13.16,0,0,1-2.75-2.25,13.44,13.44,0,0,1-2.15-3,7.27,7.27,0,0,1-.9-3.19,41,41,0,0,1,.55-6.85q.63-4.19,1.75-8.9t2.7-9.49a80.72,80.72,0,0,1,3.35-8.61,31.69,31.69,0,0,1,3.67-6.26q1.89-2.42,3.74-2.46a7.58,7.58,0,0,1,1.9.47,18.22,18.22,0,0,1,2.84,1.22,6.9,6.9,0,0,1,2.15,1.68,1.23,1.23,0,0,1-.17,1.85,38.48,38.48,0,0,0-7.16,11,78.89,78.89,0,0,0-4.24,12.4,48.27,48.27,0,0,0,8.23-7.08,14.55,14.55,0,0,0,2.38-3.35q.73-1.53-.1-2.32c-.6-.58-.59-1,0-1.29a3.85,3.85,0,0,1,2.47-.07,7.06,7.06,0,0,1,3,1.62,4.82,4.82,0,0,1,1.5,3.69,4.44,4.44,0,0,1-1.41,2.51,36.94,36.94,0,0,1-3.6,3.49q-2.16,1.87-4.66,3.82t-4.66,3.48q.93,1.68,2.29,4t3,4.94q1.62,2.58,3.46,5.15a40.89,40.89,0,0,0,3.74,4.55,22.38,22.38,0,0,0,3.78,3.22,6.34,6.34,0,0,0,3.65,1.19.93.93,0,0,0,.76-.35,3.15,3.15,0,0,0,.39-.68.68.68,0,0,1,.36-.42c.15-.05.37.06.67.35a1.54,1.54,0,0,1,.3,1.65,5.37,5.37,0,0,1-1.34,2.18,9.38,9.38,0,0,1-6.61,2.8,7.74,7.74,0,0,1-4.58-1.35,18.35,18.35,0,0,1-4-3.69,34,34,0,0,1-3.46-5.15q-1.59-2.87-2.85-5.75t-2.18-5.4q-.92-2.52-1.55-4.2a4.57,4.57,0,0,1-.51.31q-.38,2.52-.53,4.92t-.18,4.29q0,1.89.09,3.14a2.92,2.92,0,0,0,.33,1.47c.25.24.26.56,0,1s-.48.6-.72.61"/></clipPath><clipPath id="clip-path-29" transform="translate(-416 -7940)"><path class="cls-2" d="M649,8454.3a28.62,28.62,0,0,1,13.16,2.92,34.64,34.64,0,0,1,9.75,7.21,37.68,37.68,0,0,1,6.24,8.77,26.79,26.79,0,0,1,2.73,7.8q.48,3.31-.78,4.29t-4.19-2a18.59,18.59,0,0,0-8.19-4.77,55.82,55.82,0,0,0-11.79-2.24,101.88,101.88,0,0,0-14.23-.2q-7.7.39-15.69,1.56-4.87,12.09-9.26,21.54a99.38,99.38,0,0,1-9.06,16,36.69,36.69,0,0,1-10.14,9.94,22.73,22.73,0,0,1-12.28,3.41,27.34,27.34,0,0,1-11.89-2.34,23.51,23.51,0,0,1-7.8-5.75,21.42,21.42,0,0,1-4.19-7.31,29.17,29.17,0,0,1-1.46-7.21c0-.65,0-1.3.1-1.95s.16-1.3.29-1.95a34.63,34.63,0,0,1,5.07-15.6,47.34,47.34,0,0,1,10.82-12A69.3,69.3,0,0,1,591,8465.6a110.58,110.58,0,0,1,17.25-6q2.15-6,4.29-11.5t4.29-9.94q-1.56,2-3.51,4.29a53.22,53.22,0,0,1-4.09,4.39,25.91,25.91,0,0,1-4.39,3.41,8.41,8.41,0,0,1-4.39,1.36,14.57,14.57,0,0,1-6.82-1.85,19.07,19.07,0,0,1-6.34-5.65,32.27,32.27,0,0,1-4.68-9.84,50.32,50.32,0,0,1-1.85-14.62,60.84,60.84,0,0,1,3.12-20.08,65.63,65.63,0,0,1,8-16,59.68,59.68,0,0,1,11-12.09,81.35,81.35,0,0,1,12.09-8.38,55.87,55.87,0,0,1,11.21-4.87,31.67,31.67,0,0,1,8.58-1.56,22.22,22.22,0,0,1,8.38,1.36,13.79,13.79,0,0,1,5.26,3.61,13.06,13.06,0,0,1,2.73,4.87,17.57,17.57,0,0,1,.78,5,27.17,27.17,0,0,1-1.36,9,26,26,0,0,1-3.51,6.82,18,18,0,0,1,7.12,3.61q2.82,2.44,1.27,5-1.37,2.93-3,7.7T648.76,8414q-2,5.75-4,11.89l-3.9,11.7q-1.86,5.56-3.41,10.14t-2.54,7.12q7.6-.59,14-.58m-80.51,48.93q4.87,3.31,9.07,3a14.17,14.17,0,0,0,7.89-3.22,31.66,31.66,0,0,0,6.92-8,94.67,94.67,0,0,0,6.14-11.5q-7.6,2.14-14.13,4.68a63.69,63.69,0,0,0-10.72,5.17,17.65,17.65,0,0,0-5.75,5.17,3.45,3.45,0,0,0,.59,4.68m41.72-80.12a8.58,8.58,0,0,0,6.24-2.73,29.8,29.8,0,0,0,5-6.82,78.51,78.51,0,0,0,4.09-8.77q1.85-4.68,3.61-8.58a9,9,0,0,1-1.75-1.36,3.17,3.17,0,0,1-.78-2.34q0-1.76,2.92-4.87t5.56-6.24a16.09,16.09,0,0,0,3.31-5.46q.68-2.34-3.61-2.34a19.56,19.56,0,0,0-11.5,3.71,39.94,39.94,0,0,0-9.26,9.16,52.73,52.73,0,0,0-6.53,11.89,46.22,46.22,0,0,0-3.12,11.89,20.34,20.34,0,0,0,.78,9.16,5,5,0,0,0,5.07,3.7"/></clipPath><clipPath id="clip-path-31" transform="translate(-416 -7940)"><path class="cls-2" d="M940.66,8444.35a28.63,28.63,0,0,1,13.16,2.92,34.62,34.62,0,0,1,9.75,7.21,37.64,37.64,0,0,1,6.24,8.77,26.79,26.79,0,0,1,2.73,7.8q.48,3.31-.78,4.29t-4.19-1.95a18.6,18.6,0,0,0-8.19-4.78,55.82,55.82,0,0,0-11.8-2.24,101.84,101.84,0,0,0-14.23-.2q-7.7.39-15.69,1.56-4.87,12.09-9.26,21.54a99.42,99.42,0,0,1-9.06,16,36.68,36.68,0,0,1-10.14,9.94,22.72,22.72,0,0,1-12.28,3.41,27.32,27.32,0,0,1-11.89-2.34,23.51,23.51,0,0,1-7.8-5.75,21.42,21.42,0,0,1-4.19-7.31,29.17,29.17,0,0,1-1.46-7.21c0-.65,0-1.3.1-1.95s.16-1.3.29-1.95a34.63,34.63,0,0,1,5.07-15.6,47.32,47.32,0,0,1,10.82-12,69.2,69.2,0,0,1,14.82-8.87,110.35,110.35,0,0,1,17.25-6q2.14-6,4.29-11.5t4.29-9.94q-1.56,2-3.51,4.29a53.3,53.3,0,0,1-4.09,4.39,25.91,25.91,0,0,1-4.39,3.41,8.41,8.41,0,0,1-4.39,1.36,14.56,14.56,0,0,1-6.82-1.85,19.05,19.05,0,0,1-6.34-5.65,32.26,32.26,0,0,1-4.68-9.84,50.32,50.32,0,0,1-1.85-14.62,60.85,60.85,0,0,1,3.12-20.08,65.64,65.64,0,0,1,8-16,59.65,59.65,0,0,1,11-12.09,81.38,81.38,0,0,1,12.09-8.38,55.86,55.86,0,0,1,11.21-4.87,31.71,31.71,0,0,1,8.58-1.56,22.22,22.22,0,0,1,8.38,1.36,13.8,13.8,0,0,1,5.26,3.61,13.06,13.06,0,0,1,2.73,4.87,17.56,17.56,0,0,1,.78,5,27.17,27.17,0,0,1-1.36,9,26,26,0,0,1-3.51,6.82,18,18,0,0,1,7.12,3.61q2.82,2.44,1.27,5-1.37,2.93-3,7.7t-3.61,10.53q-2,5.75-4,11.89l-3.9,11.7q-1.86,5.56-3.41,10.14t-2.54,7.11q7.6-.58,14-.58m-80.51,48.93q4.87,3.31,9.07,3a14.17,14.17,0,0,0,7.89-3.22,31.68,31.68,0,0,0,6.92-8,94.71,94.71,0,0,0,6.14-11.5q-7.6,2.14-14.13,4.68a63.73,63.73,0,0,0-10.72,5.17,17.66,17.66,0,0,0-5.75,5.17,3.46,3.46,0,0,0,.59,4.68m41.72-80.12a8.58,8.58,0,0,0,6.24-2.73,29.8,29.8,0,0,0,5-6.82,78.39,78.39,0,0,0,4.09-8.77q1.85-4.68,3.61-8.58a9,9,0,0,1-1.75-1.36,3.17,3.17,0,0,1-.78-2.34q0-1.76,2.92-4.87t5.56-6.24A16.1,16.1,0,0,0,930,8366q.68-2.34-3.61-2.34a19.56,19.56,0,0,0-11.5,3.71,40,40,0,0,0-9.26,9.16,52.77,52.77,0,0,0-6.53,11.89A46.24,46.24,0,0,0,896,8400.3a20.34,20.34,0,0,0,.78,9.16,5.05,5.05,0,0,0,5.07,3.7"/></clipPath><clipPath id="clip-path-33" transform="translate(-416 -7940)"><path class="cls-2" d="M742.87,8389.19q3.31-5.44,5.85-6t3.51,2.33q1,2.92,0,8.66a41.23,41.23,0,0,1-4.68,12.55,101.68,101.68,0,0,1-11,15.56,53.74,53.74,0,0,1-10.24,9.24,21.33,21.33,0,0,1-9.26,3.7,18,18,0,0,1-8.48-1.07,51.9,51.9,0,0,1-13,9.24q-6.34,3-10.82,3.21-10.73.58-17-4a24.15,24.15,0,0,1-8.77-12.06,41.14,41.14,0,0,1-1.75-16.73,78.27,78.27,0,0,1,3.8-18.29,73.55,73.55,0,0,1,8-16.73,43,43,0,0,1,11-12q0-2.14,2.34-5a28.19,28.19,0,0,1,6.14-5.35,40.07,40.07,0,0,1,8.68-4.28,29.17,29.17,0,0,1,9.94-1.75,18.63,18.63,0,0,1,12.09,4.47,28.33,28.33,0,0,1,8.38,12.26,46.19,46.19,0,0,1,2.44,18.39,71.18,71.18,0,0,1-5.36,22.86q8.38-4.27,18.13-19.26m-57.51,39.26a19.74,19.74,0,0,0,11.7-3.9,68.35,68.35,0,0,1-8.68-16.08,127.71,127.71,0,0,1-5.75-19,42,42,0,0,0-4.29,10.24,50.35,50.35,0,0,0-2.15,13,26.6,26.6,0,0,0,1.75,11.11q1.95,4.68,7.41,4.68m24.37-21.05a59.41,59.41,0,0,0,3.9-15.21,45.36,45.36,0,0,0-.39-14.62,23.82,23.82,0,0,0-5.17-11q-3.8-4.39-10.43-4.39-2.54,0-2.92,5.56a46.36,46.36,0,0,0,1.27,13.06,77.65,77.65,0,0,0,5.07,15.11,28.31,28.31,0,0,0,8.68,11.5"/></clipPath><clipPath id="clip-path-35" transform="translate(-416 -7940)"><path class="cls-2" d="M794.19,8387.24q3.7,0,3.7,3.9a28.93,28.93,0,0,1-1.36,8.38,123.85,123.85,0,0,1-4.87,12.08,79.38,79.38,0,0,1-10.33,15.6,62.14,62.14,0,0,1-12.09,10.63,27.41,27.41,0,0,1-15.79,4.77q-6.24,0-9.74-4a22.59,22.59,0,0,1-4.87-10.53,57.27,57.27,0,0,1-.88-14.91,121.9,121.9,0,0,1,2.24-17.06,153.23,153.23,0,0,1,4.48-17.06,135.45,135.45,0,0,1,5.75-14.91,54.22,54.22,0,0,1,6.14-10.53q3.12-4,5.65-4a16.06,16.06,0,0,1,4.58,1.37,44.09,44.09,0,0,1,6.73,3.41,21.5,21.5,0,0,1,5.26,4.39q1.95,2.34.19,4.29a62.13,62.13,0,0,0-5.56,8.48,104.2,104.2,0,0,0-5.56,11.5q-2.54,6.14-4.48,12.38a68.57,68.57,0,0,0-2.63,11.4,21.77,21.77,0,0,0,.19,8.38,3.85,3.85,0,0,0,4,3.22q3.51,0,7.8-4.87t8.58-10.72q4.29-5.85,7.7-10.72t5.17-4.87"/></clipPath><clipPath id="clip-path-37" transform="translate(-416 -7940)"><path class="cls-2" d="M880,8385.29a3.46,3.46,0,0,1,2.83,1.07,4.93,4.93,0,0,1,1,2.92,18.57,18.57,0,0,1-.29,4.09,32.46,32.46,0,0,1-1.17,4.58,105,105,0,0,1-5.07,12.48,85.21,85.21,0,0,1-10.72,16.06,61.49,61.49,0,0,1-12.28,11.1,27.69,27.69,0,0,1-16.18,5,12.9,12.9,0,0,1-9.06-3.12,19.38,19.38,0,0,1-5.17-8.39,42.51,42.51,0,0,1-1.95-12.28,93.85,93.85,0,0,1,.78-14.62,152.73,152.73,0,0,1,2.83-15.5,133.89,133.89,0,0,1,4.39-14.91q-2.15,3.51-6.33,10.72t-8.29,16.08a156.6,156.6,0,0,0-7.12,18.43,59,59,0,0,0-3,17.74q0,1.76-1.36,1.76a19.14,19.14,0,0,1-9.94-2.54,23.82,23.82,0,0,1-7.21-6.53,30.48,30.48,0,0,1-4.48-9,32.8,32.8,0,0,1-1.56-9.84,113.85,113.85,0,0,1,2.14-21.35,144.28,144.28,0,0,1,5.46-20.67,83.46,83.46,0,0,1,7.11-15.69q3.8-6.24,7.12-6.24a17.94,17.94,0,0,1,4.77,1.36,47.72,47.72,0,0,1,7.12,3.41,20.92,20.92,0,0,1,5.55,4.48q2,2.44.1,4.58a67.44,67.44,0,0,0-9.75,16.08,86.5,86.5,0,0,0-6.63,22.32A41.54,41.54,0,0,1,806,8393q2-4.39,5.26-10.24t7.51-12.18a120.51,120.51,0,0,1,9-11.7,53.75,53.75,0,0,1,9.55-8.77,16.7,16.7,0,0,1,9.55-3.41,17.86,17.86,0,0,1,4.77,1.36,47.66,47.66,0,0,1,7.12,3.4,21,21,0,0,1,5.55,4.47q2,2.43.1,4.57a51.84,51.84,0,0,0-5.85,8.65,112.21,112.21,0,0,0-5.75,11.86q-2.63,6.32-4.68,12.83a77.42,77.42,0,0,0-2.83,11.76,20.27,20.27,0,0,0,.19,8.55q1,3.31,4.09,3.3,2.34,0,5.26-2.34a42.86,42.86,0,0,0,5.95-5.95q3-3.61,5.95-7.8t5.56-7.8q2.63-3.6,4.58-5.95t3.12-2.34"/></clipPath><clipPath id="clip-path-39" transform="translate(-416 -7940)"><path class="cls-2" d="M1021.93,8332.51q-11.85,10.21-17.57,17.47t-7.5,12.11q-1.77,4.85-.64,8.06a17.12,17.12,0,0,0,2.67,5.12q1.54,1.91,2.62,3.3a1.72,1.72,0,0,1-.32,2.62q-2.8,2.48-9.34,1.43a43,43,0,0,1-13.28-4.59,44.84,44.84,0,0,1-11.86-9q-5.13-5.43-4.74-12a30.28,30.28,0,0,1,5.58-16,75.18,75.18,0,0,1,12.2-13.32q7.15-6.18,15.48-12.8a130.72,130.72,0,0,0,15.58-14.61,85,85,0,0,0,12.48-18.1q5.23-10.11,6.08-24.27a107,107,0,0,0,0-11.41,42.34,42.34,0,0,0-2.12-11.53,22.12,22.12,0,0,0-5.74-9.1q-3.92-3.7-11.16-4.14-9.56-.57-15.66,7.66t-6.92,21.74a30.72,30.72,0,0,0,1.28,11.82,52.12,52.12,0,0,0,3.48,8.14q1.79,3.25,2.83,5.29a2.3,2.3,0,0,1-.69,3.27,20.94,20.94,0,0,1-14.93,3.57,35.35,35.35,0,0,1-15.53-5.72,40.65,40.65,0,0,1-11.85-11.94,25,25,0,0,1-4.21-15.46,41.79,41.79,0,0,1,5-17.06,48.73,48.73,0,0,1,12.64-15.12,60.76,60.76,0,0,1,19.8-10.39q11.63-3.77,26.46-2.89,17.46,1,29.38,6.38t19,13.53a45.92,45.92,0,0,1,9.83,18.1,60.93,60.93,0,0,1,2.13,19.8,60.06,60.06,0,0,1-5.48,22.65,80.56,80.56,0,0,1-11.64,17.82,119.19,119.19,0,0,1-15.78,15.09q-8.85,7.08-17.56,14.49m-52.21,60.7a28.66,28.66,0,0,1,10.17,1.27,63.72,63.72,0,0,1,11.48,4.32,26.87,26.87,0,0,1,8.24,5.94q2.94,3.32.13,6.13a21.36,21.36,0,0,0-3.82,5.89,32.23,32.23,0,0,0-2.44,7.63,29.75,29.75,0,0,0-.58,6.91c.1,2,.68,3.35,1.74,4.07q2.2,1.79-2.68,3.31t-12.1.44a34.71,34.71,0,0,1-13.89-5.46q-6.68-4.36-7.74-14.35-.9-12.61,2.8-19.17t8.68-6.92"/></clipPath></defs><title>how-is-the-work-going</title><g id="Warstwa_2" data-name="Warstwa 2"><g id="Warstwa_1-2" data-name="Warstwa 1"><g class="cls-3"><g class="cls-4"><rect class="cls-5" width="721.78" height="721.78"/></g></g><g class="cls-4"><circle class="cls-6" cx="360.89" cy="360.89" r="350.89"/></g><g class="cls-7"><g class="cls-4"><g class="cls-8"><g class="cls-9"><g class="cls-10"><g class="cls-9"><rect class="cls-11" x="117.24" y="197.41" width="213.99" height="210.88"/></g></g></g></g></g></g><g class="cls-12"><g class="cls-4"><rect class="cls-11" x="283.86" y="241.28" width="114.89" height="116.78"/></g></g><g class="cls-13"><g class="cls-4"><rect class="cls-11" x="363.8" y="238.36" width="142.71" height="118.06"/></g></g><g class="cls-14"><g class="cls-4"><rect class="cls-11" x="187.72" y="337.33" width="47.33" height="79.22"/></g></g><g class="cls-15"><g class="cls-4"><rect class="cls-11" x="210.05" y="352.8" width="46.83" height="63.75"/></g></g><g class="cls-16"><g class="cls-4"><rect class="cls-11" x="300.47" y="335.98" width="85.7" height="75.82"/></g></g><g class="cls-17"><g class="cls-4"><rect class="cls-11" x="359.1" y="353.75" width="49.17" height="56.54"/></g></g><g class="cls-18"><g class="cls-4"><rect class="cls-11" x="395.93" y="352.27" width="66.4" height="57.19"/></g></g><g class="cls-19"><g class="cls-4"><rect class="cls-11" x="440.91" y="351.47" width="55.89" height="56.65"/></g></g><g class="cls-20"><g class="cls-4"><rect class="cls-11" x="470.69" y="346.79" width="50.86" height="60.3"/></g></g><g class="cls-21"><g class="cls-4"><rect class="cls-11" x="494.42" y="334.74" width="56.7" height="81.74"/></g></g><g class="cls-22"><g class="cls-4"><rect class="cls-11" x="133.86" y="406.63" width="141.1" height="191.94"/></g></g><g class="cls-23"><g class="cls-4"><rect class="cls-11" x="425.57" y="396.69" width="141.1" height="191.94"/></g></g><g class="cls-24"><g class="cls-4"><rect class="cls-11" x="231.1" y="400.47" width="115.61" height="116.17"/></g></g><g class="cls-25"><g class="cls-4"><rect class="cls-11" x="311.82" y="399.61" width="80.07" height="112.99"/></g></g><g class="cls-26"><g class="cls-4"><rect class="cls-11" x="354.54" y="396.69" width="123.24" height="115.91"/></g></g><g class="cls-27"><g class="cls-4"><rect class="cls-11" x="522.11" y="254.47" width="144.38" height="255.09"/></g></g></g></g></svg>