<svg xmlns="http://www.w3.org/2000/svg" xmlns:xlink="http://www.w3.org/1999/xlink" width="548.63" height="341.3" viewBox="0 0 548.63 341.3"><defs><style>.cls-1,.cls-2{fill:none;}.cls-1{clip-rule:evenodd;}.cls-3{clip-path:url(#clip-path);}.cls-4{clip-path:url(#clip-path-2);}.cls-5{fill:#552a22;}.cls-6{clip-path:url(#clip-path-3);}.cls-7{clip-path:url(#clip-path-5);}.cls-8{clip-path:url(#clip-path-7);}.cls-9{clip-path:url(#clip-path-9);}.cls-10{clip-path:url(#clip-path-11);}.cls-11{clip-path:url(#clip-path-13);}.cls-12{clip-path:url(#clip-path-15);}.cls-13{clip-path:url(#clip-path-17);}.cls-14{clip-path:url(#clip-path-19);}.cls-15{clip-path:url(#clip-path-21);}.cls-16{clip-path:url(#clip-path-23);}.cls-17{clip-path:url(#clip-path-25);}.cls-18{clip-path:url(#clip-path-27);}.cls-19{clip-path:url(#clip-path-29);}.cls-20{isolation:isolate;}.cls-21{clip-path:url(#clip-path-31);}.cls-22{clip-path:url(#clip-path-32);}.cls-23{clip-path:url(#clip-path-33);}.cls-24{clip-path:url(#clip-path-34);}.cls-25{clip-path:url(#clip-path-36);}.cls-26{clip-path:url(#clip-path-37);}.cls-27{clip-path:url(#clip-path-38);}</style><clipPath id="clip-path" transform="translate(-1085.18 -4881.03)"><path class="cls-1" d="M1165.51,4968q0,4.21-2.22,5.62t-5.62.35a24.41,24.41,0,0,1-7.37-4.1,41.59,41.59,0,0,1-13-17.09,29.09,29.09,0,0,1-2.22-11.24,32.92,32.92,0,0,1,7-20.13q7-9.36,21.53-16t37.1-10.53q22.59-3.86,53.48-3.86a19.82,19.82,0,0,1,6.2,1.52,39.12,39.12,0,0,1,7.84,4,25.92,25.92,0,0,1,6.08,5.38q2.34,2.93.7,5.5-4.21,7-7.14,12.87t-5.38,11.12q-2.46,5.27-4.33,10.06t-4,9.95q-2.58,6.8-5,13.34t-4.57,13.34q1.87.24,3.75.35c1.25.08,2.49.12,3.74.12q16.15,1.41,28.56,1.87t22.23,0q6.09-17.78,12.87-34.06t12.87-28.56a158.73,158.73,0,0,1,11.12-19.54q5-7.25,7.61-7.26,1.4,0,5.62,2a45.44,45.44,0,0,1,8.31,5.15,25.26,25.26,0,0,1,6.44,7.14,7.07,7.07,0,0,1-.23,8,239.14,239.14,0,0,0-19,32.07,302.87,302.87,0,0,0-13.11,31.13q-2.1,6.79-3.51,11.35t-2.81,9.36q-1.4,4.8-3,11.12t-4,16.62a273,273,0,0,0-5,31q-1.05,12.06,0,19.19t3.86,10.18a11.68,11.68,0,0,0,6.32,3.75,17,17,0,0,0,7.37-.24q3.86-.94,7-1.64a13.7,13.7,0,0,1,5.15-.35c1.32.23,2,1.44,2,3.63q0,10.3-4.57,16.15a29.42,29.42,0,0,1-10.42,8.66,37.23,37.23,0,0,1-11.35,3.51,72.66,72.66,0,0,1-7.37.7q-15.22,0-22.47-10.3t-8.43-27.15q-1.17-16.85,2.46-38.15a400.63,400.63,0,0,1,9.95-43.3,15.63,15.63,0,0,0-3.28-.23q-17.33-1.63-30.78-2.22t-24.69-.58q-4.91,15-9.71,27.73a136.54,136.54,0,0,1-10.42,22.12,48.62,48.62,0,0,1-12.87,14.63,28.32,28.32,0,0,1-17.09,5.27q-10.07,0-16.62-3.51a32.46,32.46,0,0,1-10.42-8.43,27.87,27.87,0,0,1-5.27-10.53,33.41,33.41,0,0,1-1.17-9.83q.23-4.21,1.76-6.2t3.86.35q6.79,6.79,13,7.26a16.23,16.23,0,0,0,11.7-4,46.42,46.42,0,0,0,10.42-12.87,183.32,183.32,0,0,0,9.6-19.19,74.25,74.25,0,0,0-12.41,3.16,37.33,37.33,0,0,0-7.49,3.63,15,15,0,0,0-4.09,3.75,28.21,28.21,0,0,0-2,3.28,17.39,17.39,0,0,1-1.29,2.22,2,2,0,0,1-1.76.82,6.79,6.79,0,0,1-3.74-2,18.51,18.51,0,0,1-3.51-4.8,25.42,25.42,0,0,1-2.46-7.26,33.09,33.09,0,0,1-.35-9.36q.7-9.36,13.34-13.22t34.88-3.86q6.08-17.32,11.7-34.64a288.71,288.71,0,0,1,11.47-30.19,171,171,0,0,0-30.08,4.68,85.15,85.15,0,0,0-20.25,7.84,41.28,41.28,0,0,0-12.17,9.95,38.58,38.58,0,0,0-6.2,11.12,43,43,0,0,0-2.34,11.59q-.35,5.85-.35,11"/></clipPath><clipPath id="clip-path-2" transform="translate(-1085.18 -4881.03)"><rect class="cls-2" width="2720" height="11888"/></clipPath><clipPath id="clip-path-3" transform="translate(-1085.18 -4881.03)"><path class="cls-1" d="M1436.08,4998.27q4-6.54,7-7.24t4.21,2.8q1.17,3.51,0,10.4a49.53,49.53,0,0,1-5.62,15.07,122.07,122.07,0,0,1-13.22,18.69,64.5,64.5,0,0,1-12.29,11.1,25.62,25.62,0,0,1-11.12,4.44,21.58,21.58,0,0,1-10.18-1.29,62.36,62.36,0,0,1-15.57,11.1q-7.61,3.62-13,3.85-12.88.7-20.36-4.79a29,29,0,0,1-10.53-14.48,49.38,49.38,0,0,1-2.11-20.09,94,94,0,0,1,4.56-22,88.26,88.26,0,0,1,9.6-20.09,51.62,51.62,0,0,1,13.22-14.37q0-2.57,2.81-6a33.81,33.81,0,0,1,7.37-6.42,48.21,48.21,0,0,1,10.42-5.14,35.08,35.08,0,0,1,11.94-2.1,22.35,22.35,0,0,1,14.51,5.37,34,34,0,0,1,10.07,14.72q3.51,9.35,2.93,22.08t-6.44,27.44q10.06-5.13,21.77-23.12m-69,47.14a23.69,23.69,0,0,0,14-4.68,82,82,0,0,1-10.42-19.31,152.89,152.89,0,0,1-6.9-22.82,50.37,50.37,0,0,0-5.15,12.29,60.54,60.54,0,0,0-2.57,15.56,32,32,0,0,0,2.11,13.34q2.34,5.62,8.9,5.62m29.26-25.28a71.46,71.46,0,0,0,4.68-18.26,54.48,54.48,0,0,0-.47-17.55,28.58,28.58,0,0,0-6.2-13.23q-4.56-5.27-12.52-5.27-3,0-3.51,6.67a55.66,55.66,0,0,0,1.52,15.68,93.26,93.26,0,0,0,6.09,18.14q4.09,9.13,10.42,13.81"/></clipPath><clipPath id="clip-path-5" transform="translate(-1085.18 -4881.03)"><path class="cls-1" d="M1558,4931.49a32.31,32.31,0,0,1,8.66,1.17,39.87,39.87,0,0,1,7.61,2.93,18.62,18.62,0,0,1,5.38,4,6.84,6.84,0,0,1,2,4.56q0,1.17-2.34,9.25t-6.55,19.43q-4.22,11.36-10.07,24.35a180.08,180.08,0,0,1-13,24,90.71,90.71,0,0,1-15.22,18.26q-8.07,7.26-16.5,7.26-12.17,0-19.08-7.73t-9.72-19.9a82.7,82.7,0,0,1-5.73,9.25,53.29,53.29,0,0,1-8,8.9,42,42,0,0,1-10.3,6.79,29.08,29.08,0,0,1-12.52,2.69q-9.83,0-14.4-8.54t-5.38-21.42a127,127,0,0,1,1.52-27.74,194.67,194.67,0,0,1,6.32-27.62,117.56,117.56,0,0,1,8.66-21.3q4.68-8.54,8.9-8.54a20.42,20.42,0,0,1,5.62,1.64,50.38,50.38,0,0,1,8.19,4.1,26.5,26.5,0,0,1,6.44,5.38q2.46,2.93.12,5.5-1.64,1.64-4.33,7.73a145.87,145.87,0,0,0-5.27,14q-2.58,8-4.8,16.85a123,123,0,0,0-3,16.38,42.05,42.05,0,0,0,.12,12.29q.94,4.8,4.68,4.8a8.17,8.17,0,0,0,4.92-2,32.19,32.19,0,0,0,5.15-5.15,81.47,81.47,0,0,0,5.15-7.14q2.58-4,4.68-8a81.07,81.07,0,0,1,.94-20.95,120.15,120.15,0,0,1,5.5-21.65,76.28,76.28,0,0,1,8.31-17q4.68-6.9,9.36-6.91a21,21,0,0,1,6,1.64,48.4,48.4,0,0,1,8.31,4.1,26.38,26.38,0,0,1,6.44,5.38q2.46,2.93.12,5.5a54.49,54.49,0,0,0-6.67,10.07,120.73,120.73,0,0,0-6.2,13.58,144.8,144.8,0,0,0-4.8,14.63,73.78,73.78,0,0,0-2.46,13.46,27.25,27.25,0,0,0,.82,10.18q1.28,4.1,5,4.33,4.45.47,8.66-5.5a80.08,80.08,0,0,0,8.08-15.21q3.87-9.24,7.49-20.13t6.67-20.25q3-9.36,5.73-15.57t4.8-6.2"/></clipPath><clipPath id="clip-path-7" transform="translate(-1085.18 -4881.03)"><path class="cls-1" d="M1164.44,5086.49a6.57,6.57,0,0,1,1.86.48,17,17,0,0,1,2.81,1.31,8.9,8.9,0,0,1,2.22,1.75q.83.94.19,1.72a20.34,20.34,0,0,0-1.79,2.9q-1.15,2.12-2.53,5t-2.81,6.34q-1.43,3.41-2.71,6.89t-2.23,6.69a43.21,43.21,0,0,0-1.33,5.7,12,12,0,0,0-.09,4q.29,1.45,1.57,1.4a2.72,2.72,0,0,0,1.54-1,21.81,21.81,0,0,0,2-2.38q1.06-1.44,2.2-3.11l2.12-3.1c.66-1,1.24-1.75,1.74-2.37s.87-.94,1.13-1a1.42,1.42,0,0,1,1.64,1.47,9.22,9.22,0,0,1-.38,3.36,32.86,32.86,0,0,1-1.81,5,35,35,0,0,1-3.94,6.34,23.63,23.63,0,0,1-4.55,4.45,10.38,10.38,0,0,1-5.93,2.18,4.1,4.1,0,0,1-2.78-.74,6.07,6.07,0,0,1-1.67-2,8.82,8.82,0,0,1-.86-2.52,17.24,17.24,0,0,1-.29-2.32,32,32,0,0,1,.07-3.62,30.54,30.54,0,0,1-2.12,4.91,17.05,17.05,0,0,1-2.37,3.42,4.33,4.33,0,0,1-3.05,1.64,5.4,5.4,0,0,1-2.58-.56,6.85,6.85,0,0,1-2.42-2,12.59,12.59,0,0,1-1.89-3.61,18.53,18.53,0,0,1-.91-5.34c0-.4,0-.77,0-1.09a9.47,9.47,0,0,1,0-1.09c0-.1,0-.59,0-1.47a32.26,32.26,0,0,1,.34-3.29,24.32,24.32,0,0,1,2.42-7.52,21,21,0,0,1,3.87-5.29,16.3,16.3,0,0,1,4.42-3.13,10.79,10.79,0,0,1,4-1.12,4.33,4.33,0,0,1,3.72,1.57,5.05,5.05,0,0,1,.77,1.32,3.6,3.6,0,0,1,.27.89q1.24-4.19,2.7-8t2.83-6.71a32.23,32.23,0,0,1,2.58-4.59c.8-1.14,1.48-1.72,2-1.75m-12.59,30.21a28.52,28.52,0,0,0,.08-3.39,8.48,8.48,0,0,0-.4-2.31,1.22,1.22,0,0,0-1.25-1,4.27,4.27,0,0,0-2.87,1.48A14.42,14.42,0,0,0,1145,5115a27.33,27.33,0,0,0-1.8,4.52,26.83,26.83,0,0,0-1,4.48,10.9,10.9,0,0,0,0,3.42q.29,1.34,1.19,1.3a4.49,4.49,0,0,0,2.92-1.33,15.25,15.25,0,0,0,2.43-3,22.63,22.63,0,0,0,1.83-3.62,23.38,23.38,0,0,0,1.06-3.25q.06-.23.19-.84"/></clipPath><clipPath id="clip-path-9" transform="translate(-1085.18 -4881.03)"><path class="cls-1" d="M1200.7,5109.46q1.18-2.16,2.15-2.42t1.39.84a7.37,7.37,0,0,1,.15,3.33,16,16,0,0,1-1.59,4.92,39.27,39.27,0,0,1-4,6.18,20.69,20.69,0,0,1-3.79,3.74,8.26,8.26,0,0,1-3.51,1.58,6.91,6.91,0,0,1-3.29-.27,20,20,0,0,1-4.84,3.78,11.21,11.21,0,0,1-4.11,1.42,9.91,9.91,0,0,1-6.6-1.25,9.3,9.3,0,0,1-3.58-4.5,15.86,15.86,0,0,1-1-6.42,30.07,30.07,0,0,1,1.15-7.11,28.27,28.27,0,0,1,2.79-6.59,16.57,16.57,0,0,1,4-4.8,3.21,3.21,0,0,1,.82-2,10.87,10.87,0,0,1,2.28-2.17,15.54,15.54,0,0,1,3.27-1.8,11.26,11.26,0,0,1,3.8-.84,7.18,7.18,0,0,1,4.74,1.52,10.9,10.9,0,0,1,3.44,4.58,17.78,17.78,0,0,1,1.25,7,27.48,27.48,0,0,1-1.68,8.9q3.15-1.79,6.66-7.73m-21.49,16.11a7.6,7.6,0,0,0,4.44-1.7,26.3,26.3,0,0,1-3.62-6,49.23,49.23,0,0,1-2.54-7.23,16.21,16.21,0,0,0-1.48,4,19.41,19.41,0,0,0-.6,5,10.24,10.24,0,0,0,.86,4.25,2.83,2.83,0,0,0,2.94,1.68m9-8.53a23,23,0,0,0,1.24-5.93,17.46,17.46,0,0,0-.4-5.63,9.2,9.2,0,0,0-2.18-4.16,5.06,5.06,0,0,0-4.09-1.51q-1,0-1,2.19a17.89,17.89,0,0,0,.71,5,29.92,29.92,0,0,0,2.21,5.74,10.91,10.91,0,0,0,3.54,4.29"/></clipPath><clipPath id="clip-path-11" transform="translate(-1085.18 -4881.03)"><path class="cls-1" d="M1212.57,5128a8.56,8.56,0,0,1-3.27-.76,10.09,10.09,0,0,1-3.3-2.34,13.59,13.59,0,0,1-2.63-4.1,17.08,17.08,0,0,1-1.24-6,21.61,21.61,0,0,1,1.55-9.21,29.06,29.06,0,0,1,4.48-7.61,23.85,23.85,0,0,1,5.9-5.23,12.57,12.57,0,0,1,5.89-2.07q4-.17,5.89,2.07t1.32,6.11a10.07,10.07,0,0,1-1.95,4.45,23.09,23.09,0,0,1-4,4.28,26.21,26.21,0,0,1-4.9,3.27,11.66,11.66,0,0,1-4.68,1.41,7.38,7.38,0,0,0,.71,4.15,3.25,3.25,0,0,0,3.31,1.55,9.1,9.1,0,0,0,5.62-2.17,24.39,24.39,0,0,0,4.1-4.39,43.54,43.54,0,0,0,2.78-4.34q1.08-2,1.76-2a1.54,1.54,0,0,1,1.76,1.58,9.87,9.87,0,0,1-.72,4.21,30.85,30.85,0,0,1-2.69,5.54,32.64,32.64,0,0,1-4.23,5.57,23.94,23.94,0,0,1-5.38,4.3,12.47,12.47,0,0,1-6.09,1.78m9.39-32.93a4.42,4.42,0,0,0-2.33.89,11.63,11.63,0,0,0-2.35,2.25,21.34,21.34,0,0,0-2.12,3.18,40.94,40.94,0,0,0-1.79,3.69,17.18,17.18,0,0,0,5.11-2.75,17.48,17.48,0,0,0,3.31-3.35,6,6,0,0,0,1.27-2.8c.07-.78-.3-1.15-1.1-1.12"/></clipPath><clipPath id="clip-path-13" transform="translate(-1085.18 -4881.03)"><path class="cls-1" d="M1246.73,5083q3.93.43,5.54,2.77a10.15,10.15,0,0,1,1.74,5.42,10.72,10.72,0,0,1-.38,3.21,14.13,14.13,0,0,1-1.25,3.18,8.45,8.45,0,0,1-1.92,2.42,4,4,0,0,1-2.4,1,3,3,0,0,1-2.34-.91,6.29,6.29,0,0,1-1.45-2.12,4.17,4.17,0,0,1-.32-2.17q.14-1,1-1.06a4.06,4.06,0,0,0,2.69-1.21,7.5,7.5,0,0,0,1.77-2.53,3.68,3.68,0,0,0,.27-2.46q-.31-1.08-1.74-1a5.85,5.85,0,0,0-5,2.55,9.36,9.36,0,0,0-1.41,5.63,7,7,0,0,0,1.17,3.6c.73,1.1,1.53,2.22,2.41,3.36a38,38,0,0,1,2.46,3.62,9.48,9.48,0,0,1-1.24,11.12q-2.66,2.75-7.62,3a6.57,6.57,0,0,1-4.18-.95,4.87,4.87,0,0,1-1.91-2.4,3.62,3.62,0,0,1,0-2.48,1.67,1.67,0,0,1,1.56-1.2c.3,0,.47.11.51.35s.06.51.07.79a1.49,1.49,0,0,0,.26.78c.16.24.57.35,1.22.32a1.79,1.79,0,0,0,1.72-1.05,5.5,5.5,0,0,0,.38-2.5,6.91,6.91,0,0,0-1.13-3.45q-1.05-1.65-2.26-3.44a39.08,39.08,0,0,1-2.28-3.85,10.93,10.93,0,0,1-1.18-4.62,12.48,12.48,0,0,1,1-5.65,13.18,13.18,0,0,1,3.26-4.55,13.82,13.82,0,0,1,4.92-2.85,14.5,14.5,0,0,1,6.07-.65"/></clipPath><clipPath id="clip-path-15" transform="translate(-1085.18 -4881.03)"><path class="cls-1" d="M1252.38,5174q1.71,0,1.72,1.81a13.39,13.39,0,0,1-.63,3.88,57.3,57.3,0,0,1-2.26,5.6,36.7,36.7,0,0,1-4.79,7.22,28.72,28.72,0,0,1-5.6,4.92,12.69,12.69,0,0,1-7.31,2.21,5.68,5.68,0,0,1-4.52-1.85,10.44,10.44,0,0,1-2.26-4.88,26.51,26.51,0,0,1-.41-6.91,56.42,56.42,0,0,1,1-7.9,70.64,70.64,0,0,1,2.08-7.9,62.83,62.83,0,0,1,2.66-6.91,25.14,25.14,0,0,1,2.85-4.87q1.44-1.85,2.62-1.85a7.46,7.46,0,0,1,2.12.63,20.35,20.35,0,0,1,3.12,1.58,9.94,9.94,0,0,1,2.44,2,1.37,1.37,0,0,1,.09,2,28.38,28.38,0,0,0-2.57,3.93,48,48,0,0,0-2.57,5.33q-1.18,2.85-2.08,5.74a31.68,31.68,0,0,0-1.22,5.28,10.09,10.09,0,0,0,.09,3.88,1.79,1.79,0,0,0,1.85,1.49q1.62,0,3.61-2.26t4-5q2-2.7,3.57-5t2.39-2.26m-15.15-27.47a5.05,5.05,0,0,1-1.9-4.29,9.57,9.57,0,0,1,1.9-5.55,10,10,0,0,1,4.69-3.57,4.8,4.8,0,0,1,4.61.41,5,5,0,0,1,1.85,4.29,9.46,9.46,0,0,1-1.94,5.46,9.13,9.13,0,0,1-4.6,3.61,5.05,5.05,0,0,1-4.61-.36"/></clipPath><clipPath id="clip-path-17" transform="translate(-1085.18 -4881.03)"><path class="cls-1" d="M1277.06,5142.65a8.75,8.75,0,0,1,4,2.3,8.53,8.53,0,0,1,1.85,3,5.43,5.43,0,0,1,.32,2.57c-.12.72-.36,1.08-.72,1.08a1,1,0,0,1-.72-.4,3.81,3.81,0,0,0-1.27-.81,10.78,10.78,0,0,0-2.62-.68,22.73,22.73,0,0,0-4.7-.09q-1.72,3.44-3.47,7.32t-3.3,7.68q-1.54,3.79-2.66,7.23a47.58,47.58,0,0,0-1.63,6.1,11.65,11.65,0,0,0-.18,4.24,1.69,1.69,0,0,0,1.76,1.58,3.28,3.28,0,0,0,1.9-1.08,33.81,33.81,0,0,0,2.57-2.71q1.4-1.62,2.84-3.56l2.66-3.57q1.22-1.63,2.17-2.71c.63-.72,1.1-1.08,1.4-1.08a1.6,1.6,0,0,1,1.31.5,2.47,2.47,0,0,1,.5,1.31,6.65,6.65,0,0,1-.09,1.85,14.93,14.93,0,0,1-.54,2.12,48.79,48.79,0,0,1-2.35,5.78,45.12,45.12,0,0,1-5.33,7.77q-1.27,1.45-2.67,2.8a17.48,17.48,0,0,1-3,2.35,15.14,15.14,0,0,1-3.34,1.54,8.68,8.68,0,0,1-3.52.36,4,4,0,0,1-2.62-1.27,10,10,0,0,1-2-2.94,18.28,18.28,0,0,1-1.27-3.88,19.74,19.74,0,0,1-.45-4.11,42.92,42.92,0,0,1,.68-7.27q.68-3.93,1.76-8.17t2.57-8.54q1.49-4.29,3.12-8.26a13.36,13.36,0,0,1-5.15-.68,7.37,7.37,0,0,1-3-2,6.09,6.09,0,0,1-1.35-2.71,9.84,9.84,0,0,1-.23-2.71,5.87,5.87,0,0,1,.5-2.08c.27-.57.53-.86.77-.86s.62.26.77.77a3.25,3.25,0,0,0,1.22,1.54,8,8,0,0,0,3.21,1.22,21.56,21.56,0,0,0,6.73-.18,61.15,61.15,0,0,1,4.83-8.62q2.3-3.3,3.57-3.29a8.21,8.21,0,0,1,2.26.68,19.51,19.51,0,0,1,3.34,1.72A10.7,10.7,0,0,1,1280,5136a1.5,1.5,0,0,1,0,2.17,21.12,21.12,0,0,0-3,4.52"/></clipPath><clipPath id="clip-path-19" transform="translate(-1085.18 -4881.03)"><path class="cls-1" d="M1375.66,5133.09a18.58,18.58,0,0,1,5,.67,22.94,22.94,0,0,1,4.38,1.68,10.76,10.76,0,0,1,3.1,2.29,4,4,0,0,1,1.14,2.63,39.15,39.15,0,0,1-1.35,5.32q-1.35,4.65-3.77,11.18t-5.79,14a103.28,103.28,0,0,1-7.48,13.81,52.21,52.21,0,0,1-8.76,10.51q-4.65,4.18-9.5,4.18-7,0-11-4.45a25.36,25.36,0,0,1-5.59-11.45,47.79,47.79,0,0,1-3.3,5.32,30.65,30.65,0,0,1-4.58,5.12,24.2,24.2,0,0,1-5.93,3.91,16.75,16.75,0,0,1-7.21,1.55,8.75,8.75,0,0,1-8.29-4.92,30.14,30.14,0,0,1-3.1-12.33,73.27,73.27,0,0,1,.88-16,111.94,111.94,0,0,1,3.64-15.9,67.65,67.65,0,0,1,5-12.26q2.69-4.91,5.12-4.92a11.76,11.76,0,0,1,3.23.94,28.85,28.85,0,0,1,4.72,2.36,15.23,15.23,0,0,1,3.7,3.1,2.16,2.16,0,0,1,.07,3.16,17,17,0,0,0-2.49,4.45,84.14,84.14,0,0,0-3,8.08q-1.48,4.58-2.76,9.7a70.75,70.75,0,0,0-1.75,9.43,24.16,24.16,0,0,0,.07,7.07q.54,2.76,2.69,2.76a4.69,4.69,0,0,0,2.83-1.14,18.36,18.36,0,0,0,3-3,46.37,46.37,0,0,0,3-4.11q1.48-2.29,2.69-4.58a46.71,46.71,0,0,1,.54-12.06,69,69,0,0,1,3.17-12.46,43.89,43.89,0,0,1,4.78-9.77q2.69-4,5.39-4a12.13,12.13,0,0,1,3.44.94,27.91,27.91,0,0,1,4.78,2.36,15.22,15.22,0,0,1,3.71,3.1,2.16,2.16,0,0,1,.07,3.16,31.38,31.38,0,0,0-3.84,5.79,69.63,69.63,0,0,0-3.57,7.81,83.48,83.48,0,0,0-2.76,8.42,42.43,42.43,0,0,0-1.41,7.75,15.68,15.68,0,0,0,.47,5.86,3.12,3.12,0,0,0,2.9,2.49q2.56.27,5-3.17a46,46,0,0,0,4.65-8.76q2.22-5.32,4.31-11.59t3.84-11.65q1.75-5.39,3.3-9t2.76-3.57"/></clipPath><clipPath id="clip-path-21" transform="translate(-1085.18 -4881.03)"><path class="cls-1" d="M1444.59,5153.2q2.29-3.76,4-4.17t2.42,1.61a13.14,13.14,0,0,1,0,6,28.47,28.47,0,0,1-3.23,8.67,70.53,70.53,0,0,1-7.61,10.76,37.11,37.11,0,0,1-7.07,6.38,14.74,14.74,0,0,1-6.4,2.56,12.39,12.39,0,0,1-5.86-.74,35.86,35.86,0,0,1-9,6.39,20.1,20.1,0,0,1-7.48,2.22q-7.41.41-11.72-2.75a16.7,16.7,0,0,1-6.06-8.34,28.41,28.41,0,0,1-1.21-11.56,54.15,54.15,0,0,1,2.63-12.64,50.87,50.87,0,0,1,5.53-11.56,29.71,29.71,0,0,1,7.61-8.27,5.73,5.73,0,0,1,1.62-3.43,19.44,19.44,0,0,1,4.24-3.7,27.71,27.71,0,0,1,6-3,20.19,20.19,0,0,1,6.87-1.21,12.88,12.88,0,0,1,8.35,3.09,19.58,19.58,0,0,1,5.8,8.47,31.91,31.91,0,0,1,1.68,12.71,49.14,49.14,0,0,1-3.71,15.8q5.79-3,12.53-13.31m-39.75,27.14a13.64,13.64,0,0,0,8.08-2.69,47.21,47.21,0,0,1-6-11.12,88,88,0,0,1-4-13.14,29.07,29.07,0,0,0-3,7.07,34.93,34.93,0,0,0-1.48,9,18.39,18.39,0,0,0,1.21,7.68,5,5,0,0,0,5.12,3.23m16.84-14.55a41,41,0,0,0,2.69-10.51,31.33,31.33,0,0,0-.27-10.1,16.43,16.43,0,0,0-3.57-7.61,9,9,0,0,0-7.21-3q-1.75,0-2,3.84a32.08,32.08,0,0,0,.88,9,53.76,53.76,0,0,0,3.5,10.44,19.57,19.57,0,0,0,6,7.95"/></clipPath><clipPath id="clip-path-23" transform="translate(-1085.18 -4881.03)"><path class="cls-1" d="M1493.9,5153a2.22,2.22,0,0,1,1.82.74,3.76,3.76,0,0,1,.74,2,10.41,10.41,0,0,1-.14,2.83q-.27,1.55-.67,3.17a55.69,55.69,0,0,1-3.37,8.76,59.68,59.68,0,0,1-7.54,11,41.8,41.8,0,0,1-8.42,7.6,19.33,19.33,0,0,1-10.71,3.53,9.19,9.19,0,0,1-5-1.35,10.41,10.41,0,0,1-3.5-3.64,14.88,14.88,0,0,1-1.82-5.32,18.1,18.1,0,0,1,.2-6.4,33.34,33.34,0,0,1,1.62-5.73q1.35-3.84,3-8.42t3.5-9.3q1.82-4.71,3.23-8.42t2.09-5.79q.67-2.09,0-1.41a25.81,25.81,0,0,1-8.89,5.52,60.09,60.09,0,0,1-3.57,7.95q-2.22,4.18-4.65,8.15t-4.72,7.34q-2.29,3.37-3.64,5.66-1.08,1.75-2,.67a7,7,0,0,1-1.35-3.44,20.19,20.19,0,0,1-.14-5.26,10.73,10.73,0,0,1,1.35-4.65q2-3.23,4.31-7.61t4.18-8.82a10.33,10.33,0,0,1-5.12-4.85q-1.75-3.37-.27-8.62a14,14,0,0,1,4.31-7.21,11.86,11.86,0,0,1,8.22-2.9q3.24,0,4.65,1.41a6.57,6.57,0,0,1,1.82,3.43,12.18,12.18,0,0,1,.06,4.23q-.34,2.22-.74,3.83l6.53-3.49a11.55,11.55,0,0,1,4.11-1.61,6.53,6.53,0,0,1,3.16.94,11.23,11.23,0,0,1,3.1,2.62,14.73,14.73,0,0,1,2.36,4,13.45,13.45,0,0,1,.94,5,26.66,26.66,0,0,1-1,6.65q-1,3.83-2.49,7.8t-3,7.86q-1.55,3.9-2.63,6.92a32.32,32.32,0,0,0-1.41,4.9q-.34,1.88.74,1.88a6,6,0,0,0,3.7-1.62,29.15,29.15,0,0,0,4-4.11q2-2.49,4-5.39l3.77-5.39q1.75-2.49,3.1-4.11c.89-1.08,1.62-1.62,2.16-1.62"/></clipPath><clipPath id="clip-path-25" transform="translate(-1085.18 -4881.03)"><path class="cls-1" d="M1500.69,5193.34a9.21,9.21,0,0,1-4.92-1.68,23.92,23.92,0,0,1-4.92-4.24,24.66,24.66,0,0,1-3.77-5.59,13.31,13.31,0,0,1-1.48-5.86,74.35,74.35,0,0,1,1.35-12.46q1.35-7.61,3.64-16.17t5.39-17.18a147.71,147.71,0,0,1,6.54-15.56,58.37,58.37,0,0,1,7-11.25q3.57-4.31,6.94-4.31a13.74,13.74,0,0,1,3.44.94,32.83,32.83,0,0,1,5.12,2.36,12.67,12.67,0,0,1,3.84,3.17,2.25,2.25,0,0,1-.41,3.37,70.25,70.25,0,0,0-13.61,19.74,143.63,143.63,0,0,0-8.35,22.43,88.07,88.07,0,0,0,15.36-12.53,26.44,26.44,0,0,0,4.51-6q1.42-2.76-.06-4.24t.13-2.36a7,7,0,0,1,4.52,0,12.84,12.84,0,0,1,5.32,3.1q2.55,2.36,2.56,6.8,0,1.62-2.69,4.51a68,68,0,0,1-6.74,6.2q-4,3.3-8.69,6.74t-8.69,6.13q1.62,3.1,4,7.48t5.19,9.16q2.83,4.78,6.06,9.57a75,75,0,0,0,6.6,8.49,41.12,41.12,0,0,0,6.74,6.06,11.53,11.53,0,0,0,6.6,2.36,1.69,1.69,0,0,0,1.42-.61,6.27,6.27,0,0,0,.74-1.21,1.23,1.23,0,0,1,.67-.74c.27-.09.67.14,1.21.67a2.82,2.82,0,0,1,.47,3,9.76,9.76,0,0,1-2.56,3.91,17.12,17.12,0,0,1-12.19,4.78,14.14,14.14,0,0,1-8.29-2.69,33.51,33.51,0,0,1-7.14-6.94,62,62,0,0,1-6.07-9.57q-2.76-5.32-4.92-10.64t-3.71-10q-1.55-4.65-2.63-7.75a8.54,8.54,0,0,1-.94.54q-.81,4.58-1.21,9t-.54,7.81q-.14,3.44,0,5.73a5.43,5.43,0,0,0,.54,2.69q.67.68,0,1.75c-.45.72-.9,1.08-1.34,1.08"/></clipPath><clipPath id="clip-path-27" transform="translate(-1085.18 -4881.03)"><path class="cls-1" d="M1584,5150.9a55.17,55.17,0,0,0-6.73,7.54,19.45,19.45,0,0,0-2.76,5.12,4.88,4.88,0,0,0-.07,3.3,7,7,0,0,0,1.21,2l1.14,1.28a.7.7,0,0,1-.07,1.08q-1.08,1.08-3.77.81a17.66,17.66,0,0,1-5.52-1.55,18.34,18.34,0,0,1-5.05-3.37,6.39,6.39,0,0,1-2.22-4.78,12.37,12.37,0,0,1,1.89-6.67,30.51,30.51,0,0,1,4.65-5.73q2.76-2.7,6-5.59a53.54,53.54,0,0,0,6-6.33,34.69,34.69,0,0,0,4.65-7.68,24.56,24.56,0,0,0,1.89-10,43.37,43.37,0,0,0-.27-4.65,17.25,17.25,0,0,0-1.14-4.65,9,9,0,0,0-2.56-3.57,7.63,7.63,0,0,0-10.84,2.09,16.2,16.2,0,0,0-2.29,9,12.47,12.47,0,0,0,.81,4.78,21.17,21.17,0,0,0,1.61,3.23q.81,1.28,1.28,2.09a.94.94,0,0,1-.2,1.35,8.54,8.54,0,0,1-6,1.82,14.45,14.45,0,0,1-6.47-2,16.6,16.6,0,0,1-5.12-4.58,10.18,10.18,0,0,1-2.09-6.2,17,17,0,0,1,1.62-7.07,19.89,19.89,0,0,1,4.78-6.47,24.84,24.84,0,0,1,7.82-4.71,29.2,29.2,0,0,1,10.71-1.82,34.41,34.41,0,0,1,12.13,1.89A22,22,0,0,1,1597,5106a18.74,18.74,0,0,1,4.45,7.14,24.88,24.88,0,0,1,1.35,8,24.5,24.5,0,0,1-1.68,9.36,32.73,32.73,0,0,1-4.31,7.54,48.18,48.18,0,0,1-6.06,6.54q-3.43,3.1-6.81,6.33m-19.8,26a11.74,11.74,0,0,1,4.18.27,26.11,26.11,0,0,1,4.78,1.48,11,11,0,0,1,3.5,2.22,1.63,1.63,0,0,1,.2,2.5,8.62,8.62,0,0,0-1.41,2.49,13.1,13.1,0,0,0-.81,3.17,12.24,12.24,0,0,0-.06,2.83,2,2,0,0,0,.81,1.62c.63.45.29.92-1,1.41a11.08,11.08,0,0,1-4.92.47,14.14,14.14,0,0,1-5.79-1.89q-2.83-1.62-3.5-5.66-.67-5.12.67-7.88t3.37-3"/></clipPath><clipPath id="clip-path-29" transform="translate(-1085.18 -4881.03)"><rect class="cls-2" x="1356.95" y="5064.59" width="266.87" height="44.53"/></clipPath><clipPath id="clip-path-31" transform="translate(-1085.18 -4881.03)"><rect class="cls-2" x="1356" y="5064" width="276" height="46"/></clipPath><clipPath id="clip-path-32" transform="translate(-1085.18 -4881.03)"><path class="cls-1" d="M1579.46,5064.59c-58.44,0-150,17.13-220.64,22.17,2.55,6.21,2.9,15.37-1.87,22.36,74.92-4.54,172.27-24,216-24s42,23.28,45.75,19.22c8.39-7.31,12.72-39.79-39.25-39.79"/></clipPath><clipPath id="clip-path-33" transform="translate(-1085.18 -4881.03)"><rect class="cls-2" x="1356" y="5064" width="268" height="46"/></clipPath><clipPath id="clip-path-34" transform="translate(-1085.18 -4881.03)"><rect class="cls-2" x="1095.18" y="5153.68" width="128.5" height="43.33"/></clipPath><clipPath id="clip-path-36" transform="translate(-1085.18 -4881.03)"><rect class="cls-2" x="1090" y="5149" width="134" height="50"/></clipPath><clipPath id="clip-path-37" transform="translate(-1085.18 -4881.03)"><path class="cls-1" d="M1223.68,5156.17c-44.85,7.37-59.21,17.91-95.13,19.12-31,1-23.7-25.88-28.69-21-8.2,9.41-9.1,43.91,26.58,42.71,34.13-1.14,50.46-13.34,90.11-20.45a78.15,78.15,0,0,1,7.13-20.35"/></clipPath><clipPath id="clip-path-38" transform="translate(-1085.18 -4881.03)"><rect class="cls-2" x="1095" y="5153" width="129" height="45"/></clipPath></defs><title>how-does-it-work-header</title><g id="Warstwa_2" data-name="Warstwa 2"><g id="Warstwa_1-2" data-name="Warstwa 1"><g class="cls-3"><g class="cls-4"><rect class="cls-5" x="39.9" width="253.78" height="248.45"/></g></g><g class="cls-6"><g class="cls-4"><rect class="cls-5" x="237.93" y="60.76" width="134.79" height="135.48"/></g></g><g class="cls-7"><g class="cls-4"><rect class="cls-5" x="337.48" y="40.46" width="168.96" height="135.16"/></g></g><g class="cls-8"><g class="cls-4"><rect class="cls-5" x="39.26" y="195.46" width="57.57" height="74.08"/></g></g><g class="cls-9"><g class="cls-4"><rect class="cls-5" x="72.94" y="204.11" width="56.38" height="57.51"/></g></g><g class="cls-10"><g class="cls-4"><rect class="cls-5" x="106.92" y="199.62" width="49.61" height="57.37"/></g></g><g class="cls-11"><g class="cls-4"><rect class="cls-5" x="136.26" y="191.91" width="42.58" height="57.48"/></g></g><g class="cls-12"><g class="cls-4"><rect class="cls-5" x="131.09" y="241.74" width="47.83" height="86.92"/></g></g><g class="cls-13"><g class="cls-4"><rect class="cls-5" x="155.04" y="240.33" width="53.03" height="84.07"/></g></g><g class="cls-14"><g class="cls-4"><rect class="cls-5" x="208.35" y="242.06" width="105.74" height="86.29"/></g></g><g class="cls-15"><g class="cls-4"><rect class="cls-5" x="290.13" y="235.41" width="86.08" height="86.47"/></g></g><g class="cls-16"><g class="cls-4"><rect class="cls-5" x="344.72" y="227.73" width="76.6" height="93.83"/></g></g><g class="cls-17"><g class="cls-4"><rect class="cls-5" x="390.42" y="207.99" width="86.31" height="133.31"/></g></g><g class="cls-18"><g class="cls-4"><rect class="cls-5" x="456.73" y="207.99" width="70.93" height="116.41"/></g></g><g class="cls-19"><g class="cls-4"><g class="cls-20"><g class="cls-21"><g class="cls-22"><g class="cls-23"><rect class="cls-5" x="261.77" y="173.55" width="286.87" height="64.53"/></g></g></g></g></g></g><g class="cls-24"><g class="cls-4"><g class="cls-20"><g class="cls-25"><g class="cls-26"><g class="cls-27"><rect class="cls-5" y="262.65" width="148.5" height="63.33"/></g></g></g></g></g></g></g></g></svg>