<svg xmlns="http://www.w3.org/2000/svg" xmlns:xlink="http://www.w3.org/1999/xlink" width="100.31" height="99.77" viewBox="0 0 100.31 99.77"><defs><style>.cls-1,.cls-2{fill:none;}.cls-2{clip-rule:evenodd;}.cls-3{clip-path:url(#clip-path);}.cls-4{clip-path:url(#clip-path-2);}.cls-5{isolation:isolate;}.cls-6{clip-path:url(#clip-path-3);}.cls-7{clip-path:url(#clip-path-4);}.cls-8{fill:#feccb9;}.cls-9{clip-path:url(#clip-path-6);}.cls-10{clip-path:url(#clip-path-8);}.cls-11{clip-path:url(#clip-path-9);}.cls-12{fill:#221f20;}</style><clipPath id="clip-path"><rect class="cls-1" x="10" y="10" width="80.31" height="79.77"/></clipPath><clipPath id="clip-path-2"><rect class="cls-1" x="9.14" y="8.51" width="82.25" height="82.79"/></clipPath><clipPath id="clip-path-3"><rect class="cls-1" x="9.14" y="9.51" width="82" height="81"/></clipPath><clipPath id="clip-path-4"><path class="cls-2" d="M50.11,89.77A40,40,0,0,1,21.73,78.06,39.47,39.47,0,0,1,10,49.85,40.21,40.21,0,0,1,78.58,21.71a39.5,39.5,0,0,1,11.74,28.2A40.08,40.08,0,0,1,50.15,89.77Z"/></clipPath><clipPath id="clip-path-6"><rect class="cls-1" x="33.25" y="23.75" width="36.76" height="54.2"/></clipPath><clipPath id="clip-path-8"><rect class="cls-1" x="33.14" y="23.51" width="37" height="55"/></clipPath><clipPath id="clip-path-9"><path class="cls-2" d="M41.34,60.84c1.4-6.38,3.86-22,7-30.33.77-2.08,5.85-3,8.71-.67-2.12,7.71-4.1,19.34-4.1,19.34a7.61,7.61,0,0,0,2.88-.81,11.29,11.29,0,0,0,2.53-1.79,13.75,13.75,0,0,0,2.1-2.5A18.2,18.2,0,0,0,63,37.83a15.86,15.86,0,0,0,.35-3.26A11.12,11.12,0,0,0,63,31.46a7.29,7.29,0,0,0-1.31-2.58,6.1,6.1,0,0,0-2.31-1.76A8.25,8.25,0,0,0,56,26.48a20,20,0,0,0-6.52,1,13.47,13.47,0,0,0-4.86,2.84,15.09,15.09,0,0,0-3.42,4.54,14.17,14.17,0,0,0-1.26,6.08,8.88,8.88,0,0,0,.16,1.84,7.06,7.06,0,0,0,.33,1.13,3.64,3.64,0,0,0,.33.65.77.77,0,0,1,.16.41,16,16,0,0,1-3.28-.31,6.38,6.38,0,0,1-2.39-1,4.22,4.22,0,0,1-1.46-1.77,6.48,6.48,0,0,1-.51-2.72,8.13,8.13,0,0,1,1-3.89,15,15,0,0,1,2.82-3.62,27.4,27.4,0,0,1,13.77-7.33,22.27,22.27,0,0,1,5-.59,18.41,18.41,0,0,1,6.33,1,12.69,12.69,0,0,1,4.39,2.6A10,10,0,0,1,69.19,31a12,12,0,0,1,.82,4.4,14.72,14.72,0,0,1-1.18,5.68,16.18,16.18,0,0,1-3.42,5.12,17.41,17.41,0,0,1-12.65,5.11h-.32S49.18,65.93,47.65,71c-1.46,4.8-5.24,7-10.63,7,0,0,3.36-12.76,4.32-17.11"/></clipPath></defs><title>logo-dot</title><g id="Warstwa_2" data-name="Warstwa 2"><g id="Warstwa_1-2" data-name="Warstwa 1"><g class="cls-3"><g class="cls-4"><g class="cls-5"><g class="cls-6"><g class="cls-7"><g class="cls-6"><rect class="cls-8" width="100.31" height="99.77"/></g></g></g></g></g></g><g class="cls-9"><g class="cls-4"><g class="cls-5"><g class="cls-10"><g class="cls-11"><g class="cls-10"><rect class="cls-12" x="23.25" y="13.75" width="56.76" height="74.2"/></g></g></g></g></g></g></g></g></svg>