<?xml version="1.0" encoding="UTF-8" standalone="no"?>
<svg
   xmlns:dc="http://purl.org/dc/elements/1.1/"
   xmlns:cc="http://creativecommons.org/ns#"
   xmlns:rdf="http://www.w3.org/1999/02/22-rdf-syntax-ns#"
   xmlns:svg="http://www.w3.org/2000/svg"
   xmlns="http://www.w3.org/2000/svg"
   xmlns:sodipodi="http://sodipodi.sourceforge.net/DTD/sodipodi-0.dtd"
   xmlns:inkscape="http://www.inkscape.org/namespaces/inkscape"
   version="1.0"
   width="260.000000pt"
   height="260.000000pt"
   viewBox="0 0 260.000000 260.000000"
   preserveAspectRatio="xMidYMid meet"
   id="svg2"
   inkscape:version="0.91 r13725"
   sodipodi:docname="logo-dot.svg.2017_08_10_12_20_06.0.svg">
  <defs
     id="defs14" />
  <sodipodi:namedview
     pagecolor="#ffffff"
     bordercolor="#666666"
     borderopacity="1"
     objecttolerance="10"
     gridtolerance="10"
     guidetolerance="10"
     inkscape:pageopacity="0"
     inkscape:pageshadow="2"
     inkscape:window-width="1276"
     inkscape:window-height="1649"
     id="namedview12"
     showgrid="false"
     inkscape:zoom="2.2396331"
     inkscape:cx="152.28735"
     inkscape:cy="143.88478"
     inkscape:window-x="1280"
     inkscape:window-y="24"
     inkscape:window-maximized="0"
     inkscape:current-layer="svg2" />
  <metadata
     id="metadata4">
Created by potrace 1.11, written by Peter Selinger 2001-2013
<rdf:RDF>
  <cc:Work
     rdf:about="">
    <dc:format>image/svg+xml</dc:format>
    <dc:type
       rdf:resource="http://purl.org/dc/dcmitype/StillImage" />
  </cc:Work>
</rdf:RDF>
</metadata>
  <path
     style="fill:#000000;stroke:none"
     inkscape:connector-curvature="0"
     id="path8"
     d="m 108.5,31.2 c -34.4,6.4 -66,30.4 -68.2,52 -0.7,7.1 1.2,13.5 5.1,17.4 3.4,3.4 7.8,5 16.5,6.1 4.9,0.6 5.4,0.5 4.7,-1.2 C 63.3,96.8 63.4,85 66.9,74.7 71,62.8 82.3,50.5 93.6,45.4 c 10.6,-4.7 27.4,-6.7 36.9,-4.3 5.3,1.3 11.9,6.7 14.5,11.9 2.9,5.7 4.1,15.2 3,23.3 -2.9,20 -14.1,37.2 -28.5,43.8 -3.3,1.6 -8.5,2.5 -8.5,1.6 0.1,-3.3 11.6,-58.3 13.9,-66.4 0.8,-2.7 0.6,-3.4 -1.3,-4.6 -7.8,-5.2 -20.5,-4.6 -26.6,1.1 -5,4.7 -10.5,25.6 -21.5,80.6 -4,20.4 -10.5,49.9 -14.5,65.5 -3.9,15.5 -6.9,28.5 -6.7,28.7 1,1 14.2,-1.7 18.9,-3.9 10,-4.6 14.8,-10.2 18.6,-21.7 2,-6.1 10.2,-38.9 15.2,-61.3 l 2.2,-9.7 4.7,0 c 13.9,-0.1 30.3,-7.3 41.2,-18 11.3,-11.2 17,-24.2 17,-39 0,-13.8 -4.4,-24 -13.5,-31.5 -11.5,-9.4 -32.2,-13.7 -50.1,-10.3 z" />
  <path
     style="fill:#f47349;stroke:none;fill-opacity:1"
     inkscape:connector-curvature="0"
     id="path10"
     d="m 162.5,143.1 c -23.3,3.3 -39.9,26.9 -35.1,49.9 2.8,13.4 11.1,24.2 22.8,29.9 26,12.6 56.1,-3.1 60.7,-31.7 4.5,-27.8 -20,-52.1 -48.4,-48.1 z" />
  <path
     style="fill:#f47349;fill-opacity:1;stroke:#f47349;stroke-width:0;stroke-miterlimit:4;stroke-dasharray:none;stroke-opacity:0"
     d=""
     id="path4138"
     inkscape:connector-curvature="0"
     transform="scale(0.8,0.8)" />
</svg>
