<svg xmlns="http://www.w3.org/2000/svg" xmlns:xlink="http://www.w3.org/1999/xlink" width="619.71" height="207.31" viewBox="0 0 619.71 207.31"><defs><style>.cls-1,.cls-2{fill:none;}.cls-1{clip-rule:evenodd;}.cls-3{clip-path:url(#clip-path);}.cls-4{clip-path:url(#clip-path-2);}.cls-5{fill:#552a22;}.cls-6{clip-path:url(#clip-path-3);}.cls-7{clip-path:url(#clip-path-5);}.cls-8{clip-path:url(#clip-path-7);}.cls-9{clip-path:url(#clip-path-9);}.cls-10{clip-path:url(#clip-path-11);}.cls-11{clip-path:url(#clip-path-13);}.cls-12{clip-path:url(#clip-path-15);}.cls-13{clip-path:url(#clip-path-17);}.cls-14{isolation:isolate;}.cls-15{clip-path:url(#clip-path-19);}.cls-16{clip-path:url(#clip-path-20);}.cls-17{clip-path:url(#clip-path-21);}</style><clipPath id="clip-path" transform="translate(-1049 -9599.6)"><path class="cls-1" d="M1212.44,9653.41a38.79,38.79,0,0,1-3.53,16.15,65.39,65.39,0,0,1-9.19,14.67,78.88,78.88,0,0,1-13.09,12.53,116.8,116.8,0,0,1-15.13,9.84,90.63,90.63,0,0,1-15.13,6.59A54.8,54.8,0,0,1,1143,9716a55.79,55.79,0,0,0,8.26,18.38,89.25,89.25,0,0,0,12.72,14.94,66,66,0,0,0,13.83,10.12q7,3.71,11.6,3.71,6.31,0,9-1.21a11.22,11.22,0,0,0,3.9-2.6,14.83,14.83,0,0,0,1.86-2.6q.65-1.21,2.88-1.21t3.71,2.51a14,14,0,0,1,1.77,6.13,26.43,26.43,0,0,1-.74,8,22.31,22.31,0,0,1-3.62,8,21.74,21.74,0,0,1-7,6.13,21.52,21.52,0,0,1-10.86,2.51,48.8,48.8,0,0,1-26.64-7.33,68.68,68.68,0,0,1-19.68-18.84,101.44,101.44,0,0,1-12.9-25.62,137.44,137.44,0,0,1-6.5-27.47q-4.64,12.63-9.47,24a159.61,159.61,0,0,1-10,20.05,65.34,65.34,0,0,1-10.58,13.74q-5.39,5.1-11.14,5.11a22.88,22.88,0,0,1-11.32-2.6,23.92,23.92,0,0,1-7.52-6.41,25.93,25.93,0,0,1-4.18-8,27.78,27.78,0,0,1-1.39-7.33,8.48,8.48,0,0,1,.84-4.64q.93-1.48,2.6.18,6.68,6.5,12.25,5.48t10.4-7.33a72,72,0,0,0,9-16.61q4.18-10.3,8-22t7.61-23.58q3.8-11.88,7.7-21.44a82.11,82.11,0,0,1,8.08-15.59q4.18-6,9-6a16.41,16.41,0,0,1,5.76,1.3,26.87,26.87,0,0,1,6,3.25,14.58,14.58,0,0,1,4,4.09,2.81,2.81,0,0,1-.37,3.8,53.93,53.93,0,0,0-3.9,4.55,33.91,33.91,0,0,0-4.64,9.19q-1.49,3.9-2.6,7.24t-2.14,6.68q-1,3.34-2.14,6.87t-2.6,7.61a30.15,30.15,0,0,0,11.88.28,66.78,66.78,0,0,0,13.74-3.71,74.69,74.69,0,0,0,13.83-7.05,72.36,72.36,0,0,0,12.07-9.65,47.08,47.08,0,0,0,8.54-11.51,27.18,27.18,0,0,0,3.25-12.72,11.87,11.87,0,0,0-4.64-9.56,33.5,33.5,0,0,0-11.88-5.94,85.54,85.54,0,0,0-16-3q-8.73-.83-17.08-.84-17.26.56-28,3.81t-16.8,8q-6,4.73-8.17,10.21a27.16,27.16,0,0,0-2,10.4,23.75,23.75,0,0,0,1.67,8.73,16.71,16.71,0,0,0,2.88,5.1q1.67,1.67,0,2.69a10,10,0,0,1-5.11,1,31.59,31.59,0,0,1-8-1.21,27.91,27.91,0,0,1-8.63-4,23,23,0,0,1-6.87-7.52,22.53,22.53,0,0,1-2.79-11.6,20.08,20.08,0,0,1,1.67-6.87,37.82,37.82,0,0,1,5.38-9.1,58.58,58.58,0,0,1,9.84-9.75,66.51,66.51,0,0,1,15-8.82,106.58,106.58,0,0,1,21-6.4,136.83,136.83,0,0,1,27.66-2.51,125.7,125.7,0,0,1,28.5,3,68.76,68.76,0,0,1,21.44,8.54,40.19,40.19,0,0,1,13.46,13.74,36.35,36.35,0,0,1,4.73,18.56"/></clipPath><clipPath id="clip-path-2" transform="translate(-1049 -9599.6)"><rect class="cls-2" width="2720" height="11888"/></clipPath><clipPath id="clip-path-3" transform="translate(-1049 -9599.6)"><path class="cls-1" d="M1260.85,9703.24q2.84-4.66,5-5.16t3,2q.84,2.5,0,7.41a35.35,35.35,0,0,1-4,10.75,87.23,87.23,0,0,1-9.44,13.33,46.07,46.07,0,0,1-8.77,7.92,18.27,18.27,0,0,1-7.93,3.17,15.38,15.38,0,0,1-7.26-.92,44.45,44.45,0,0,1-11.1,7.92,24.91,24.91,0,0,1-9.27,2.75q-9.18.5-14.53-3.42a20.69,20.69,0,0,1-7.52-10.33,35.22,35.22,0,0,1-1.5-14.33,67,67,0,0,1,3.26-15.66,63,63,0,0,1,6.85-14.33,36.85,36.85,0,0,1,9.43-10.25,7.11,7.11,0,0,1,2-4.25,24.11,24.11,0,0,1,5.26-4.58,34.32,34.32,0,0,1,7.43-3.67,25,25,0,0,1,8.52-1.5,16,16,0,0,1,10.35,3.83,24.26,24.26,0,0,1,7.18,10.5,39.57,39.57,0,0,1,2.09,15.75,61,61,0,0,1-4.59,19.58q7.18-3.66,15.53-16.5m-49.26,33.63a16.9,16.9,0,0,0,10-3.34,58.56,58.56,0,0,1-7.43-13.78,109,109,0,0,1-4.93-16.28,35.93,35.93,0,0,0-3.67,8.77,43.18,43.18,0,0,0-1.84,11.1,22.81,22.81,0,0,0,1.5,9.52q1.67,4,6.34,4m20.87-18a51,51,0,0,0,3.34-13,38.9,38.9,0,0,0-.33-12.52,20.4,20.4,0,0,0-4.43-9.44,11.21,11.21,0,0,0-8.93-3.76q-2.17,0-2.5,4.76a39.71,39.71,0,0,0,1.08,11.19A66.58,66.58,0,0,0,1225,9709a24.23,24.23,0,0,0,7.43,9.85"/></clipPath><clipPath id="clip-path-5" transform="translate(-1049 -9599.6)"><path class="cls-1" d="M1256.07,9727.17q0-13.69,5.43-23.46a57.32,57.32,0,0,1,12.77-16,54.54,54.54,0,0,1,14.78-9.27q7.43-3,11.44-3a17.22,17.22,0,0,1,6.84,1.17,13.36,13.36,0,0,1,4.35,2.92,9.88,9.88,0,0,1,2.35,3.93,13.63,13.63,0,0,1,.67,4,23.93,23.93,0,0,1-1.09,7.6,18.34,18.34,0,0,1-2.95,5.59,14,14,0,0,1,3.61,1.42,12.47,12.47,0,0,1,2.6,1.92,3.84,3.84,0,0,1,1.17,2.17,2.78,2.78,0,0,1-1,2.34,34.72,34.72,0,0,0-4.69,6.51,62.45,62.45,0,0,0-4.52,9.18,26.36,26.36,0,0,0-2,8.27q-.17,3.59,3,3.59a7.63,7.63,0,0,0,4.53-2,33.08,33.08,0,0,0,5-5.09q2.51-3.09,5-6.68t4.76-6.68q2.25-3.09,3.92-5.09t2.67-2q2.84,0,3.17,3.67a22.86,22.86,0,0,1-1.5,9.1A69.53,69.53,0,0,1,1331,9733a65.42,65.42,0,0,1-8.52,11.77,49.63,49.63,0,0,1-11,9.1,23.76,23.76,0,0,1-12.54,3.67q-4.84,0-7.1-2.92a16.69,16.69,0,0,1-3.09-6.59,30.4,30.4,0,0,1-.5-9.68A51.83,51.83,0,0,1,1283,9746a37.9,37.9,0,0,1-5.18,5.18,8.77,8.77,0,0,1-5.51,2.34,12,12,0,0,1-5.68-1.5,15.3,15.3,0,0,1-5.18-4.76,27.93,27.93,0,0,1-3.84-8.18,41.29,41.29,0,0,1-1.5-11.94m44.28-37.91a16.11,16.11,0,0,0-9.35,3,30.75,30.75,0,0,0-7.6,7.6,46.84,46.84,0,0,0-5.34,9.85,38,38,0,0,0-2.59,9.85,17,17,0,0,0,.58,7.6,4.17,4.17,0,0,0,4.26,3,7,7,0,0,0,5.09-2.25,24.67,24.67,0,0,0,4.09-5.59,60.75,60.75,0,0,0,3.34-7.18q1.5-3.84,3-7.18a3.93,3.93,0,0,1-1.5-1.08,3,3,0,0,1-.67-2.09,4.46,4.46,0,0,1,1.17-2.34q1.17-1.5,2.67-3.26t3.09-3.51a13.6,13.6,0,0,0,2.26-3.17,2.79,2.79,0,0,0,.25-2.34q-.42-.92-2.76-.92"/></clipPath><clipPath id="clip-path-7" transform="translate(-1049 -9599.6)"><path class="cls-1" d="M1396.26,9647.86a14.49,14.49,0,0,1,4.09,1.25,37.64,37.64,0,0,1,6.1,3.17,19.67,19.67,0,0,1,4.76,4.09q1.75,2.17.25,3.84a45.16,45.16,0,0,0-4.26,6.26q-2.75,4.59-6.09,10.94t-6.85,13.78q-3.51,7.43-6.68,15t-5.59,14.61a95.69,95.69,0,0,0-3.51,12.52,26.54,26.54,0,0,0-.58,8.77q.5,3.25,3.34,3.25,1.33,0,3.51-2a48.77,48.77,0,0,0,4.67-5.09q2.51-3.09,5.18-6.68t5-6.68q2.34-3.09,4.09-5.09t2.59-2q3.34,0,3.51,3.42a20.47,20.47,0,0,1-1.17,7.43,73.24,73.24,0,0,1-4.51,10.85,78,78,0,0,1-9.35,13.69,52.52,52.52,0,0,1-10.52,9.43,23.08,23.08,0,0,1-13.36,4.26,9.08,9.08,0,0,1-6.09-1.92,13.47,13.47,0,0,1-3.51-4.59,19.61,19.61,0,0,1-1.67-5.68,38.28,38.28,0,0,1-.42-5.18,70.1,70.1,0,0,1,.5-8,68.45,68.45,0,0,1-5.18,10.69,37.8,37.8,0,0,1-5.59,7.35,9.63,9.63,0,0,1-6.93,3.34,12,12,0,0,1-5.68-1.5,15.32,15.32,0,0,1-5.18-4.76,28,28,0,0,1-3.84-8.18,41.25,41.25,0,0,1-1.5-11.94v-2.42a20,20,0,0,1,.17-2.42q0-.33.25-3.26a72,72,0,0,1,1.08-7.26,54.06,54.06,0,0,1,6.09-16.45,46.59,46.59,0,0,1,9.1-11.36,36.14,36.14,0,0,1,10.1-6.51,24.09,24.09,0,0,1,8.93-2.09,9.64,9.64,0,0,1,8.1,3.84,11.22,11.22,0,0,1,1.59,3,8.27,8.27,0,0,1,.5,2q3.17-9.18,6.76-17.53t6.93-14.61a71.69,71.69,0,0,1,6.18-9.94q2.84-3.67,4.68-3.67m-30.89,65.79a63.6,63.6,0,0,0,.5-7.51,18.9,18.9,0,0,0-.67-5.18q-.67-2.34-2.67-2.34a9.47,9.47,0,0,0-6.51,3,32,32,0,0,0-5.76,7.6,60.54,60.54,0,0,0-4.42,9.85,58.7,58.7,0,0,0-2.59,9.85,23.94,23.94,0,0,0-.25,7.6q.5,3,2.5,3a9.93,9.93,0,0,0,6.6-2.67,33.8,33.8,0,0,0,5.68-6.43,49.91,49.91,0,0,0,4.43-7.85,51.88,51.88,0,0,0,2.67-7.1q.16-.5.5-1.84"/></clipPath><clipPath id="clip-path-9" transform="translate(-1049 -9599.6)"><path class="cls-1" d="M1522,9708.56a3,3,0,0,1,2.42.92,4.22,4.22,0,0,1,.83,2.5,15.8,15.8,0,0,1-.25,3.51,27.6,27.6,0,0,1-1,3.92,84.34,84.34,0,0,1-4.34,10.85,71.8,71.8,0,0,1-9.18,13.69,51.52,51.52,0,0,1-10.6,9.44,24.25,24.25,0,0,1-13.94,4.26q-7.18,0-10.35-5.84t-3.42-14.69a88.28,88.28,0,0,1,1.75-19.2,142.75,142.75,0,0,1,5.18-19.54q-1.84,3-5.26,8.93a148.44,148.44,0,0,0-6.77,13.36,140.6,140.6,0,0,0-5.84,15.36,49.68,49.68,0,0,0-2.51,14.95q.5,3.17-1,3.17a16.65,16.65,0,0,1-8.59-2.17,20.55,20.55,0,0,1-6.23-5.59,26,26,0,0,1-3.87-7.68,27.84,27.84,0,0,1-1.35-8.43,94.57,94.57,0,0,1,1.68-17.37,126.06,126.06,0,0,1,4.38-17l-.17.17A190.75,190.75,0,0,0,1432,9715.9q-2.17,4.35-4.18,9t-3.6,9.44a88.18,88.18,0,0,0-2.59,9.43,42.11,42.11,0,0,0-1,8.85v.17c0,.89-.39,1.34-1.17,1.34a16.39,16.39,0,0,1-8.52-2.17,20.44,20.44,0,0,1-6.18-5.59,26.18,26.18,0,0,1-3.84-7.68,28.07,28.07,0,0,1-1.34-8.43,99,99,0,0,1,1.84-18.37,123.66,123.66,0,0,1,4.68-17.78,67.9,67.9,0,0,1,6.18-13.44q3.34-5.34,6.18-5.34a15.35,15.35,0,0,1,4.09,1.17,37.38,37.38,0,0,1,6,2.92,18.39,18.39,0,0,1,4.68,3.84q1.75,2.09.08,3.92a57.72,57.72,0,0,0-8.35,13.78,74,74,0,0,0-5.68,19.12,43.22,43.22,0,0,1,2.18-5q1.84-3.84,4.69-8.85t6.54-10.44a95.74,95.74,0,0,1,7.72-9.94,50.76,50.76,0,0,1,8.22-7.51,13.94,13.94,0,0,1,8-3,12.26,12.26,0,0,1,3.76,1.17,28.58,28.58,0,0,1,5.26,2.92,15.22,15.22,0,0,1,3.93,3.84,2.88,2.88,0,0,1-.25,3.92,48.17,48.17,0,0,0-7,12.53,73.38,73.38,0,0,0-4.51,17.36q1.17-2.67,3.09-6.76t4.59-8.77q2.67-4.67,5.84-9.35a64.91,64.91,0,0,1,6.76-8.43,35.82,35.82,0,0,1,7.52-6.1,11.29,11.29,0,0,1,12-1.17,40.74,40.74,0,0,1,6.1,2.92,17.88,17.88,0,0,1,4.76,3.84q1.76,2.09.09,3.92a44.55,44.55,0,0,0-5,7.43,107.6,107.6,0,0,0-5,10.19,113.88,113.88,0,0,0-4.09,11,60.24,60.24,0,0,0-2.34,10.1,19.61,19.61,0,0,0,.17,7.35,3.41,3.41,0,0,0,3.59,2.84,7.56,7.56,0,0,0,4.51-2,36.53,36.53,0,0,0,5.09-5.09q2.58-3.09,5.09-6.68t4.76-6.68q2.25-3.09,3.92-5.09t2.67-2"/></clipPath><clipPath id="clip-path-11" transform="translate(-1049 -9599.6)"><path class="cls-1" d="M1514.28,9719.46q0-13.69,5.43-23.46a57.31,57.31,0,0,1,12.78-16,54.52,54.52,0,0,1,14.78-9.27q7.43-3,11.44-3a17.22,17.22,0,0,1,6.84,1.17,13.35,13.35,0,0,1,4.35,2.92,9.85,9.85,0,0,1,2.35,3.92,13.63,13.63,0,0,1,.67,4,23.93,23.93,0,0,1-1.09,7.6,18.31,18.31,0,0,1-2.95,5.59,14,14,0,0,1,3.61,1.42,12.44,12.44,0,0,1,2.6,1.92,3.84,3.84,0,0,1,1.17,2.17,2.77,2.77,0,0,1-1,2.34,34.63,34.63,0,0,0-4.69,6.51,62.26,62.26,0,0,0-4.52,9.19,26.29,26.29,0,0,0-2,8.26q-.17,3.59,3,3.59a7.62,7.62,0,0,0,4.52-2,33,33,0,0,0,5-5.09q2.51-3.09,5-6.68t4.76-6.68q2.25-3.09,3.92-5.09t2.67-2q2.84,0,3.17,3.67a22.9,22.9,0,0,1-1.5,9.1,69.53,69.53,0,0,1-5.43,11.77,65.36,65.36,0,0,1-8.52,11.77,49.62,49.62,0,0,1-11,9.1,23.75,23.75,0,0,1-12.54,3.67q-4.84,0-7.1-2.92a16.71,16.71,0,0,1-3.09-6.59,30.4,30.4,0,0,1-.5-9.68,51.71,51.71,0,0,1-5.34,7.68,37.9,37.9,0,0,1-5.17,5.18,8.78,8.78,0,0,1-5.51,2.34,12,12,0,0,1-5.68-1.5,15.32,15.32,0,0,1-5.18-4.76,27.89,27.89,0,0,1-3.84-8.18,41.29,41.29,0,0,1-1.5-11.94m44.28-37.91a16.12,16.12,0,0,0-9.35,3,30.74,30.74,0,0,0-7.6,7.6,46.94,46.94,0,0,0-5.35,9.85,38,38,0,0,0-2.59,9.85,17,17,0,0,0,.58,7.6,4.17,4.17,0,0,0,4.26,3,7,7,0,0,0,5.09-2.25,24.64,24.64,0,0,0,4.09-5.59,61,61,0,0,0,3.34-7.18q1.5-3.84,3-7.18a3.94,3.94,0,0,1-1.5-1.08,3,3,0,0,1-.67-2.09,4.45,4.45,0,0,1,1.17-2.34q1.17-1.5,2.67-3.26t3.09-3.51a13.56,13.56,0,0,0,2.25-3.17,2.79,2.79,0,0,0,.25-2.34q-.42-.92-2.76-.92"/></clipPath><clipPath id="clip-path-13" transform="translate(-1049 -9599.6)"><path class="cls-1" d="M1646.19,9660.16a8.44,8.44,0,0,1,5.34,1.42,14.71,14.71,0,0,1,3.93,3.92,18.79,18.79,0,0,1,2.42,5.09,17.7,17.7,0,0,1,.83,5.09,72.07,72.07,0,0,1-1.67,14.78,121.06,121.06,0,0,1-4.51,15.86,116.47,116.47,0,0,1-6.68,15.2,98.58,98.58,0,0,1-8,12.86,44.19,44.19,0,0,1-8.6,8.94q-4.43,3.34-8.43,3.34-5.85,0-9.27-2.17a11,11,0,0,1-4.67-5.59,13.37,13.37,0,0,1-.33-7.6,21.71,21.71,0,0,1,3.76-8.1,29.73,29.73,0,0,1,7.52-7.1,35.57,35.57,0,0,1,11-4.84q2.67-6.51,4.93-13.28t3.59-12.11a47.31,47.31,0,0,0,1.5-8.77q.16-3.42-1.5-3.42t-4.59,2.92a67.32,67.32,0,0,0-6.51,7.85q-3.59,4.93-7.6,11.35t-7.68,13.53q-3.68,7.1-6.76,14.44a119.7,119.7,0,0,0-4.93,13.86,133.58,133.58,0,0,0-3.68,21.87q-.67,9.52-.58,16t0,9.85q-.09,3.34-1.92,3.34a22.83,22.83,0,0,1-7.93-1.17,15.45,15.45,0,0,1-5-2.92,9.54,9.54,0,0,1-2.67-3.92,12.77,12.77,0,0,1-.75-4.18,176.44,176.44,0,0,1,1.92-25.72,253,253,0,0,1,5-25.21q3.09-12.19,6.85-22.88t7.43-18.7a91.43,91.43,0,0,1,6.76-12.61q3.09-4.59,4.93-4.59a23.56,23.56,0,0,1,3.84.58,27.84,27.84,0,0,1,5.51,1.75,11.28,11.28,0,0,1,4.26,3.09q1.59,1.92.09,4.43a74.75,74.75,0,0,1,7.35-8.18,57.82,57.82,0,0,1,7.35-5.59,16.16,16.16,0,0,1,8.18-2.75m-33.4,76.81q2.34,0,5.51-4.76a111.23,111.23,0,0,0,6.68-11.77,32,32,0,0,0-8.27,4.84,24.88,24.88,0,0,0-5.09,5.43,7.32,7.32,0,0,0-1.5,4.42q.16,1.84,2.67,1.84"/></clipPath><clipPath id="clip-path-15" transform="translate(-1049 -9599.6)"><path class="cls-1" d="M1567.12,9762.05c-83.71,4.88-226.15,26.78-289.85,11.56-31.86-7.61-24.9-27.18-30.32-22.47-9,9.19-7.78,35.27,29.36,41.81,56.57,10,212.29-8.26,290.76-12.73a31,31,0,0,1,0-18.16"/></clipPath><clipPath id="clip-path-17" transform="translate(-1049 -9599.6)"><rect class="cls-2" x="1602.19" y="9761.25" width="47.63" height="35.66"/></clipPath><clipPath id="clip-path-19" transform="translate(-1049 -9599.6)"><rect class="cls-2" x="1601" y="9761" width="56" height="39"/></clipPath><clipPath id="clip-path-20" transform="translate(-1049 -9599.6)"><path class="cls-1" d="M1611.25,9761.77c-2.72-.25-5.69-.42-8.87-.52-.6,5.47.33,12.8,1.29,18.28.67,0,1.32.1,1.93.16,38,3.68,36.53,20.27,39.83,16.73,7.31-6.36,10.89-30.51-34.18-34.65"/></clipPath><clipPath id="clip-path-21" transform="translate(-1049 -9599.6)"><rect class="cls-2" x="1602" y="9761" width="48" height="36"/></clipPath></defs><title>roadmap</title><g id="Warstwa_2" data-name="Warstwa 2"><g id="Warstwa_1-2" data-name="Warstwa 1"><g class="cls-3"><g class="cls-4"><rect class="cls-5" width="173.59" height="199.14"/></g></g><g class="cls-6"><g class="cls-4"><rect class="cls-5" x="128.39" y="60.48" width="101.9" height="102.38"/></g></g><g class="cls-7"><g class="cls-4"><rect class="cls-5" x="197.07" y="65.81" width="101.91" height="102.16"/></g></g><g class="cls-8"><g class="cls-4"><rect class="cls-5" x="266.79" y="38.26" width="106.36" height="139.06"/></g></g><g class="cls-9"><g class="cls-4"><rect class="cls-5" x="340.56" y="65.73" width="145.67" height="102.32"/></g></g><g class="cls-10"><g class="cls-4"><rect class="cls-5" x="455.28" y="58.09" width="101.9" height="102.16"/></g></g><g class="cls-11"><g class="cls-4"><rect class="cls-5" x="517.72" y="50.55" width="101.99" height="148.59"/></g></g><g class="cls-12"><g class="cls-4"><rect class="cls-5" x="183.31" y="140.82" width="344.8" height="65.46"/></g></g><g class="cls-13"><g class="cls-4"><g class="cls-14"><g class="cls-15"><g class="cls-16"><g class="cls-17"><rect class="cls-5" x="543.19" y="151.65" width="67.63" height="55.66"/></g></g></g></g></g></g></g></g></svg>