<svg xmlns="http://www.w3.org/2000/svg" xmlns:xlink="http://www.w3.org/1999/xlink" width="722.1" height="722.1" viewBox="0 0 722.1 722.1"><defs><style>.cls-1,.cls-2{fill:none;}.cls-2{clip-rule:evenodd;}.cls-3{clip-path:url(#clip-path);}.cls-4{fill:#fff;}.cls-5{clip-path:url(#clip-path-2);}.cls-6{isolation:isolate;}.cls-7{clip-path:url(#clip-path-3);}.cls-8{clip-path:url(#clip-path-4);}.cls-9{fill:#552a22;}.cls-10{clip-path:url(#clip-path-6);}.cls-11{clip-path:url(#clip-path-7);}.cls-12{clip-path:url(#clip-path-8);}.cls-13{clip-path:url(#clip-path-9);}.cls-14{clip-path:url(#clip-path-10);}.cls-15{clip-path:url(#clip-path-11);}.cls-16{clip-path:url(#clip-path-12);}.cls-17{clip-path:url(#clip-path-13);}.cls-18{clip-path:url(#clip-path-14);}.cls-19{clip-path:url(#clip-path-15);}.cls-20{clip-path:url(#clip-path-16);}.cls-21{clip-path:url(#clip-path-17);}.cls-22{clip-path:url(#clip-path-18);}.cls-23{clip-path:url(#clip-path-19);}.cls-24{clip-path:url(#clip-path-20);}.cls-25{clip-path:url(#clip-path-21);}.cls-26{clip-path:url(#clip-path-22);}.cls-27{clip-path:url(#clip-path-23);}.cls-28{clip-path:url(#clip-path-24);}.cls-29{clip-path:url(#clip-path-26);}.cls-30{clip-path:url(#clip-path-27);}.cls-31{clip-path:url(#clip-path-28);}.cls-32{clip-path:url(#clip-path-29);}.cls-33{clip-path:url(#clip-path-30);}</style><clipPath id="clip-path"><circle class="cls-1" cx="361.05" cy="361.05" r="351.05"/></clipPath><clipPath id="clip-path-2"><rect class="cls-1" x="139.55" y="187.79" width="248.67" height="202.59"/></clipPath><clipPath id="clip-path-3"><rect class="cls-1" x="139.37" y="187.38" width="249" height="204"/></clipPath><clipPath id="clip-path-4"><path class="cls-2" d="M364.12,188.08q7.1-1,11.9,1.25a20.1,20.1,0,0,1,7.58,5.76,19.51,19.51,0,0,1,3.74,7.87,31.74,31.74,0,0,1,.86,7.68,9.15,9.15,0,0,1-1.34,5.09q-1.25,1.73-2.78,0-5-5-10.27-3.26t-10.46,8.44A97.69,97.69,0,0,0,353,238.56q-5.19,10.94-10.08,24.09t-9.5,27.74q-4.61,14.59-8.92,28.79t-8.06,27.06q-3.74,12.86-6.81,22.74t-5.47,15.64q-2.4,5.76-3.93,5.76H300a11.69,11.69,0,0,1-1.92-.38,18.84,18.84,0,0,1-4.7-2.4q-3.17-2-6.59-4.61t-6.47-5.18q-3-2.59-4.38-3.93-.57-.77-1.81-7.68t-2.38-16.79q-1.14-9.88-2-21.11t-.85-20.44q-1.54,6-4.61,14.49t-7,17.66q-3.94,9.12-8.35,18.14t-8.64,16.12a101.87,101.87,0,0,1-7.77,11.52q-3.55,4.41-5.66,4.41h-.19a8.24,8.24,0,0,1-1.92-.19q-1.54-.39-3.65-1.15A34.15,34.15,0,0,1,217,387a29.87,29.87,0,0,1-3.84-2.4,14.24,14.24,0,0,1-3-2.88A90.08,90.08,0,0,1,200,373.21q-4.61-4.51-5.57-7.39-1-1,1.05-9.12t5.09-20.44q3.07-12.28,6-27.16a226.47,226.47,0,0,0,3.93-29.27,113.12,113.12,0,0,0-1.15-26.68q-2.11-12.28-9.21-19.39-2.5-2.49-5.86.19a30.66,30.66,0,0,0-6.81,8.73,121.48,121.48,0,0,0-6.91,14.59,182.56,182.56,0,0,0-6.14,17.85,177.18,177.18,0,0,0-4.32,18.62,97.3,97.3,0,0,0-1.63,16.6q0,8.45,1.92,12.86a26.08,26.08,0,0,0,3.94,6.72,45.52,45.52,0,0,0,3.17,3.36q1.15,1.06-.58,2.78-1.34,1.35-4.7,1.15a24.33,24.33,0,0,1-7.49-1.82,59.78,59.78,0,0,1-8.64-4.32,43.51,43.51,0,0,1-8.16-6.24,34.85,34.85,0,0,1-6-7.77,17.6,17.6,0,0,1-2.4-8.83,88.67,88.67,0,0,1,3.83-26,109.28,109.28,0,0,1,10-23.13,92.2,92.2,0,0,1,14-18.52,65.32,65.32,0,0,1,15.91-12.19,31.65,31.65,0,0,1,15.53-4A19.23,19.23,0,0,1,212,230.12a53.88,53.88,0,0,1,9.2,4.8A63.4,63.4,0,0,1,232,243.75q4,4,5.09,13.63a128,128,0,0,1,.29,21.79q-.77,12.19-2.78,25.34t-4.13,24.38q-2.11,11.23-3.74,19.1a81.11,81.11,0,0,0-1.63,9.21,70.3,70.3,0,0,0,12.17-17.47,190.12,190.12,0,0,0,10.16-23.61q4.5-12.67,8-25.82t5.56-24a167.69,167.69,0,0,0,2.69-18.14q.57-7.29-.39-8.45a24.83,24.83,0,0,1,11.31,1.73,20.43,20.43,0,0,1,8,6.53q3.54,4.6,3.55,14,0,9.6.76,20.92t1.73,22.46q1,11.14,1.72,20.92t.77,15.93q4-12.28,8.73-28.12t9.89-32.63q5.18-16.79,11.13-33a258.46,258.46,0,0,1,12.67-29.27,99.62,99.62,0,0,1,14.4-21.5q7.68-8.44,16.31-9.6"/></clipPath><clipPath id="clip-path-6"><path class="cls-2" d="M429.57,314.57q3.64,0,4,4.22A27.77,27.77,0,0,1,432,329.35a69,69,0,0,1-6.33,13.71,80.12,80.12,0,0,1-10.08,13.66,55.9,55.9,0,0,1-12.86,10.48,28.36,28.36,0,0,1-14.59,4.19,10.79,10.79,0,0,1-6.33-2,17.58,17.58,0,0,1-4.89-5.28,26.48,26.48,0,0,1-3.07-7.29,31.65,31.65,0,0,1-1.06-8.06,53.24,53.24,0,0,1,1.54-12.38A124.6,124.6,0,0,1,378,323.68q2.2-6.23,4.41-11.9t3.65-10a26.44,26.44,0,0,0,1.53-6.91q.09-2.59-2-2.59-3.84,0-7.49,3.36a42.14,42.14,0,0,0-7,8.73,83.62,83.62,0,0,0-6.14,12,124.93,124.93,0,0,0-4.7,13.15q-1,3.65-1.73,6.43t-1.34,5.47q-.58,2.69-1,5.56t-.77,6.53q-.39,4.42-.48,7.39c-.06,2-.16,3.55-.29,4.7a4.56,4.56,0,0,1-.77,2.4,2.4,2.4,0,0,1-1.92.67,23.17,23.17,0,0,1-7-1.06,13.88,13.88,0,0,1-5.76-3.46,17.4,17.4,0,0,1-3.84-6.14,25.47,25.47,0,0,1-1.44-9.12,104,104,0,0,1,2.59-21.5q2.59-12.09,6.43-24.76t8.54-24.86q4.7-12.19,9.21-21.69A143.06,143.06,0,0,1,369,240.77q3.74-5.85,5.85-5.85a14.9,14.9,0,0,1,4.41,1.35,41.64,41.64,0,0,1,6.43,3.37A24.56,24.56,0,0,1,391,244q2.11,2.4,1,4.71-5.57,11-9.79,20.57t-7.87,18.07a40.43,40.43,0,0,1,12-7.88,23.37,23.37,0,0,1,11.9-2,13.62,13.62,0,0,1,9.12,5.1q3.65,4.42,3.65,13.26a37.16,37.16,0,0,1-1.54,9.9q-1.54,5.48-3.55,11.06t-4,11q-2,5.39-3.26,9.62a19.81,19.81,0,0,0-1.06,6.73,2.41,2.41,0,0,0,2.69,2.5q1.73,0,4.32-2.4a57.31,57.31,0,0,0,5.47-6q2.88-3.55,5.95-7.68t5.76-7.68q2.69-3.55,4.8-6t3.07-2.4"/></clipPath><clipPath id="clip-path-7"><path class="cls-2" d="M419.93,336.45q0-15.74,6.24-27a65.84,65.84,0,0,1,14.68-18.43,62.62,62.62,0,0,1,17-10.65q8.54-3.46,13.15-3.46a19.82,19.82,0,0,1,7.87,1.34,15.36,15.36,0,0,1,5,3.36,11.32,11.32,0,0,1,2.7,4.51,15.64,15.64,0,0,1,.77,4.61,27.51,27.51,0,0,1-1.26,8.73,21.1,21.1,0,0,1-3.39,6.43,16.09,16.09,0,0,1,4.16,1.63,14.31,14.31,0,0,1,3,2.21,4.41,4.41,0,0,1,1.34,2.5A3.18,3.18,0,0,1,490,315a39.79,39.79,0,0,0-5.39,7.49,71.63,71.63,0,0,0-5.2,10.56,30.25,30.25,0,0,0-2.3,9.5q-.19,4.13,3.46,4.13,2.3,0,5.2-2.3a37.86,37.86,0,0,0,5.78-5.85q2.88-3.55,5.76-7.68t5.47-7.68q2.59-3.55,4.51-5.85t3.07-2.3q3.26,0,3.65,4.22a26.32,26.32,0,0,1-1.73,10.46,80,80,0,0,1-6.24,13.53,75.18,75.18,0,0,1-9.79,13.53,57,57,0,0,1-12.59,10.46,27.3,27.3,0,0,1-14.41,4.22q-5.57,0-8.16-3.36a19.2,19.2,0,0,1-3.55-7.58,34.94,34.94,0,0,1-.58-11.13,59.4,59.4,0,0,1-6.14,8.83,43.63,43.63,0,0,1-5.95,5.95,10.09,10.09,0,0,1-6.33,2.69A13.83,13.83,0,0,1,432,365a17.61,17.61,0,0,1-5.95-5.47,32.09,32.09,0,0,1-4.42-9.4,47.5,47.5,0,0,1-1.72-13.72m50.9-43.57a18.53,18.53,0,0,0-10.75,3.45,35.41,35.41,0,0,0-8.73,8.73,53.88,53.88,0,0,0-6.14,11.32,43.69,43.69,0,0,0-3,11.32,19.62,19.62,0,0,0,.67,8.73,4.79,4.79,0,0,0,4.89,3.45,8.08,8.08,0,0,0,5.85-2.59,28.27,28.27,0,0,0,4.7-6.43,70,70,0,0,0,3.84-8.25q1.73-4.41,3.45-8.25a4.52,4.52,0,0,1-1.73-1.25,3.48,3.48,0,0,1-.77-2.4A5.12,5.12,0,0,1,464.5,308q1.34-1.73,3.07-3.74t3.55-4a15.65,15.65,0,0,0,2.59-3.65,3.21,3.21,0,0,0,.29-2.69c-.32-.7-1.38-1.06-3.17-1.06"/></clipPath><clipPath id="clip-path-8"><path class="cls-2" d="M550.29,259.1a18.58,18.58,0,0,1,8.44,4.89,18.07,18.07,0,0,1,3.94,6.33,11.58,11.58,0,0,1,.67,5.47c-.26,1.54-.77,2.3-1.53,2.3a2.12,2.12,0,0,1-1.54-.87,8.13,8.13,0,0,0-2.69-1.73,23,23,0,0,0-5.57-1.44,48.54,48.54,0,0,0-10-.19q-3.65,7.3-7.39,15.55t-7,16.31q-3.27,8.06-5.66,15.36a101.43,101.43,0,0,0-3.45,13,24.71,24.71,0,0,0-.38,9q.67,3.36,3.74,3.36,1.54,0,4-2.3a71.58,71.58,0,0,0,5.47-5.76q3-3.46,6-7.58t5.66-7.58q2.59-3.45,4.61-5.76c1.34-1.53,2.33-2.3,3-2.3a3.4,3.4,0,0,1,2.78,1.06,5.21,5.21,0,0,1,1.06,2.78,14.19,14.19,0,0,1-.19,3.94,31.47,31.47,0,0,1-1.15,4.51,103.71,103.71,0,0,1-5,12.28,95.82,95.82,0,0,1-11.33,16.51q-2.69,3.07-5.66,5.95a36.89,36.89,0,0,1-6.43,5,32.16,32.16,0,0,1-7.1,3.26,18.5,18.5,0,0,1-7.49.77,8.48,8.48,0,0,1-5.57-2.69,21.32,21.32,0,0,1-4.22-6.24A39.06,39.06,0,0,1,497.7,354a42,42,0,0,1-1-8.73,91.45,91.45,0,0,1,1.44-15.45q1.44-8.35,3.74-17.37t5.47-18.14q3.17-9.11,6.62-17.56a28.48,28.48,0,0,1-10.94-1.44,15.67,15.67,0,0,1-6.43-4.22,13,13,0,0,1-2.88-5.76,20.68,20.68,0,0,1-.48-5.76,12.46,12.46,0,0,1,1.06-4.41c.58-1.22,1.12-1.82,1.63-1.82.77,0,1.31.55,1.63,1.63a6.84,6.84,0,0,0,2.59,3.26,16.94,16.94,0,0,0,6.81,2.59q4.7,1,14.3-.39a129.65,129.65,0,0,1,10.27-18.33q4.89-7,7.58-7a17.59,17.59,0,0,1,4.8,1.44,41.56,41.56,0,0,1,7.1,3.65,22.58,22.58,0,0,1,5.47,4.7q2,2.5.1,4.61-2.5,2.5-6.33,9.6"/></clipPath><clipPath id="clip-path-9"><path class="cls-2" d="M357.28,383.23a5.46,5.46,0,0,1,1.54.47,14,14,0,0,1,2.29,1.19,7.35,7.35,0,0,1,1.79,1.54q.66.82.09,1.44a17.09,17.09,0,0,0-1.6,2.35q-1,1.73-2.29,4.11t-2.57,5.18q-1.32,2.79-2.51,5.65t-2.1,5.49a36.08,36.08,0,0,0-1.32,4.71,10,10,0,0,0-.22,3.29c.13.82.54,1.22,1.26,1.22a2.28,2.28,0,0,0,1.32-.75,18.54,18.54,0,0,0,1.76-1.91q.94-1.16,1.94-2.51l1.88-2.51q.88-1.16,1.54-1.91t1-.75a1.19,1.19,0,0,1,1.32,1.29,7.71,7.71,0,0,1-.44,2.79,27.38,27.38,0,0,1-1.7,4.08,29.24,29.24,0,0,1-3.51,5.15,19.75,19.75,0,0,1-4,3.55,8.68,8.68,0,0,1-5,1.6,3.42,3.42,0,0,1-2.29-.72,5.08,5.08,0,0,1-1.32-1.73,7.39,7.39,0,0,1-.63-2.13,14.38,14.38,0,0,1-.16-1.95,26.54,26.54,0,0,1,.19-3,25.67,25.67,0,0,1-1.95,4,14.2,14.2,0,0,1-2.1,2.76,3.62,3.62,0,0,1-2.6,1.25,4.52,4.52,0,0,1-2.13-.56,5.75,5.75,0,0,1-1.95-1.79,10.44,10.44,0,0,1-1.44-3.07,15.49,15.49,0,0,1-.57-4.49v-.91a7.4,7.4,0,0,1,.06-.91c0-.08,0-.49.09-1.22a27.5,27.5,0,0,1,.41-2.73,20.34,20.34,0,0,1,2.29-6.18,17.5,17.5,0,0,1,3.42-4.27,13.52,13.52,0,0,1,3.8-2.45,9.08,9.08,0,0,1,3.36-.78,3.62,3.62,0,0,1,3,1.44,4.15,4.15,0,0,1,.6,1.13,3.06,3.06,0,0,1,.19.75q1.19-3.45,2.54-6.59t2.6-5.49a27,27,0,0,1,2.32-3.73q1.07-1.38,1.76-1.38M345.67,408a24,24,0,0,0,.19-2.82,7.13,7.13,0,0,0-.25-1.95,1,1,0,0,0-1-.88,3.57,3.57,0,0,0-2.45,1.13,12,12,0,0,0-2.16,2.86,22.73,22.73,0,0,0-1.66,3.7,22,22,0,0,0-1,3.7,9,9,0,0,0-.09,2.85q.19,1.13.94,1.13a3.73,3.73,0,0,0,2.48-1,12.73,12.73,0,0,0,2.13-2.42,18.82,18.82,0,0,0,1.66-2.95,19.27,19.27,0,0,0,1-2.67c0-.12.1-.35.19-.69"/></clipPath><clipPath id="clip-path-10"><path class="cls-2" d="M384.89,408.93q1.07-1.76,1.88-1.94c.54-.12.92.13,1.13.75a6.14,6.14,0,0,1,0,2.79,13.26,13.26,0,0,1-1.51,4,32.9,32.9,0,0,1-3.54,5,17.33,17.33,0,0,1-3.29,3,6.87,6.87,0,0,1-3,1.19,5.78,5.78,0,0,1-2.73-.34,16.75,16.75,0,0,1-4.17,3,9.37,9.37,0,0,1-3.48,1,8.25,8.25,0,0,1-5.46-1.28,7.77,7.77,0,0,1-2.82-3.88,13.26,13.26,0,0,1-.56-5.38,25.3,25.3,0,0,1,1.22-5.89,23.61,23.61,0,0,1,2.57-5.38,13.85,13.85,0,0,1,3.55-3.85,2.68,2.68,0,0,1,.75-1.6,9.07,9.07,0,0,1,2-1.72,12.86,12.86,0,0,1,2.79-1.38,9.37,9.37,0,0,1,3.2-.56,6,6,0,0,1,3.89,1.44,9.1,9.1,0,0,1,2.7,3.94,14.89,14.89,0,0,1,.79,5.92,22.9,22.9,0,0,1-1.73,7.36q2.7-1.38,5.83-6.2m-18.51,12.64a6.36,6.36,0,0,0,3.76-1.25,22.05,22.05,0,0,1-2.79-5.18A41.17,41.17,0,0,1,365.5,409a13.44,13.44,0,0,0-1.38,3.29,16.21,16.21,0,0,0-.69,4.17,8.6,8.6,0,0,0,.57,3.58,2.35,2.35,0,0,0,2.38,1.51m7.84-6.78a19.16,19.16,0,0,0,1.25-4.89,14.62,14.62,0,0,0-.12-4.71,7.66,7.66,0,0,0-1.66-3.54,4.21,4.21,0,0,0-3.36-1.41q-.81,0-.94,1.79a15,15,0,0,0,.41,4.2,24.87,24.87,0,0,0,1.63,4.86,9.09,9.09,0,0,0,2.79,3.7"/></clipPath><clipPath id="clip-path-11"><path class="cls-2" d="M391,427.4a7.09,7.09,0,0,1-2.7-.75,8.44,8.44,0,0,1-2.67-2.07,11.35,11.35,0,0,1-2-3.51,14.27,14.27,0,0,1-.81-5.08,18,18,0,0,1,1.63-7.62,24.22,24.22,0,0,1,4-6.18,19.86,19.86,0,0,1,5.11-4.14,10.48,10.48,0,0,1,5-1.51q3.32,0,4.83,1.94a6.14,6.14,0,0,1,.88,5.15,8.44,8.44,0,0,1-1.79,3.64,19.28,19.28,0,0,1-3.48,3.42,21.8,21.8,0,0,1-4.2,2.54,9.65,9.65,0,0,1-4,1,6.15,6.15,0,0,0,.44,3.48,2.71,2.71,0,0,0,2.7,1.41,7.58,7.58,0,0,0,4.77-1.6,20.21,20.21,0,0,0,3.57-3.51,36.35,36.35,0,0,0,2.48-3.51c.65-1.07,1.16-1.6,1.54-1.6a1.29,1.29,0,0,1,1.41,1.38,8.26,8.26,0,0,1-.75,3.48,25.71,25.71,0,0,1-2.45,4.52,27.08,27.08,0,0,1-3.73,4.48,19.92,19.92,0,0,1-4.64,3.39A10.38,10.38,0,0,1,391,427.4m9-27.11a3.71,3.71,0,0,0-2,.66,9.89,9.89,0,0,0-2,1.79,17.94,17.94,0,0,0-1.88,2.57,34.18,34.18,0,0,0-1.63,3,14.32,14.32,0,0,0,4.36-2.1,14.59,14.59,0,0,0,2.89-2.67,5,5,0,0,0,1.16-2.29q.12-1-.88-1"/></clipPath><clipPath id="clip-path-12"><path class="cls-2" d="M418.27,396.53a6.07,6.07,0,0,1,4.52,2.51,8.48,8.48,0,0,1,1.25,4.58,9,9,0,0,1-.44,2.67,11.74,11.74,0,0,1-1.16,2.6,7,7,0,0,1-1.69,1.94,3.29,3.29,0,0,1-2,.75,2.5,2.5,0,0,1-1.91-.85,5.23,5.23,0,0,1-1.13-1.82,3.49,3.49,0,0,1-.19-1.82c.1-.56.39-.85.85-.85a3.38,3.38,0,0,0,2.29-.91,6.27,6.27,0,0,0,1.57-2,3.06,3.06,0,0,0,.31-2q-.22-.91-1.41-.91a4.88,4.88,0,0,0-4.27,1.95,7.82,7.82,0,0,0-1.38,4.64,5.81,5.81,0,0,0,.85,3q.85,1.42,1.88,2.89a31.23,31.23,0,0,1,1.91,3.11,7.92,7.92,0,0,1-1.44,9.22,9,9,0,0,1-6.46,2.2,5.48,5.48,0,0,1-3.45-.94,4.07,4.07,0,0,1-1.5-2.07,3,3,0,0,1,.09-2.07,1.39,1.39,0,0,1,1.35-.94q.38,0,.41.31a6.58,6.58,0,0,1,0,.66,1.25,1.25,0,0,0,.19.66q.19.31,1,.31a1.5,1.5,0,0,0,1.47-.81,4.63,4.63,0,0,0,.41-2.07,5.79,5.79,0,0,0-.81-2.92q-.82-1.41-1.76-3a32.21,32.21,0,0,1-1.76-3.29,9.12,9.12,0,0,1-.82-3.89,10.43,10.43,0,0,1,1.07-4.67A11,11,0,0,1,409,399a11.54,11.54,0,0,1,4.2-2.2,12.08,12.08,0,0,1,5.08-.31"/></clipPath><clipPath id="clip-path-13"><path class="cls-2" d="M452.3,409.58c.79,0,1.19.42,1.19,1.25a9.36,9.36,0,0,1-.44,2.7,40,40,0,0,1-1.57,3.89,25.54,25.54,0,0,1-3.32,5,20.05,20.05,0,0,1-3.89,3.42,8.81,8.81,0,0,1-5.08,1.54,4,4,0,0,1-3.14-1.29,7.29,7.29,0,0,1-1.57-3.39,18.43,18.43,0,0,1-.28-4.8,39,39,0,0,1,.72-5.49,49.24,49.24,0,0,1,1.44-5.49,43.59,43.59,0,0,1,1.85-4.8,17.52,17.52,0,0,1,2-3.39q1-1.28,1.82-1.29a5.2,5.2,0,0,1,1.48.44,14.22,14.22,0,0,1,2.16,1.1,6.87,6.87,0,0,1,1.69,1.41,1,1,0,0,1,.06,1.38,20.27,20.27,0,0,0-1.79,2.73,33.77,33.77,0,0,0-1.79,3.7q-.82,2-1.44,4a21.87,21.87,0,0,0-.85,3.67,7,7,0,0,0,.06,2.7,1.24,1.24,0,0,0,1.29,1,3.7,3.7,0,0,0,2.51-1.57q1.38-1.57,2.76-3.45t2.48-3.45q1.09-1.57,1.66-1.57m-3.69-23.07a3.51,3.51,0,0,1-1.32-3,6.66,6.66,0,0,1,1.32-3.86,7,7,0,0,1,3.26-2.48,3.33,3.33,0,0,1,3.2.28,3.44,3.44,0,0,1,1.29,3,6.57,6.57,0,0,1-1.35,3.8,6.34,6.34,0,0,1-3.2,2.51,3.51,3.51,0,0,1-3.2-.25"/></clipPath><clipPath id="clip-path-14"><path class="cls-2" d="M467.65,390.69a6.07,6.07,0,0,1,2.76,1.6,6,6,0,0,1,1.29,2.07,3.81,3.81,0,0,1,.22,1.79c-.08.5-.25.75-.5.75a.69.69,0,0,1-.5-.28,2.65,2.65,0,0,0-.88-.56,7.48,7.48,0,0,0-1.82-.47,15.88,15.88,0,0,0-3.26-.06q-1.19,2.38-2.42,5.08t-2.29,5.33q-1.07,2.63-1.85,5a33,33,0,0,0-1.13,4.23,8.08,8.08,0,0,0-.13,2.95,1.17,1.17,0,0,0,1.22,1.1,2.29,2.29,0,0,0,1.32-.75,23.71,23.71,0,0,0,1.79-1.88q1-1.13,2-2.48l1.85-2.48q.85-1.13,1.51-1.88c.44-.5.76-.75,1-.75a1.11,1.11,0,0,1,.91.34,1.71,1.71,0,0,1,.35.91,4.69,4.69,0,0,1-.06,1.29,10.61,10.61,0,0,1-.38,1.48,33.9,33.9,0,0,1-1.63,4,31.13,31.13,0,0,1-3.7,5.4q-.88,1-1.85,1.95a12.14,12.14,0,0,1-2.1,1.63,10.64,10.64,0,0,1-2.32,1.07,6.05,6.05,0,0,1-2.45.25,2.76,2.76,0,0,1-1.82-.88,7,7,0,0,1-1.38-2,12.8,12.8,0,0,1-.88-2.7,13.73,13.73,0,0,1-.31-2.86,29.64,29.64,0,0,1,.47-5.05q.47-2.73,1.22-5.68t1.79-5.93q1-3,2.17-5.74a9.32,9.32,0,0,1-3.58-.47,5.13,5.13,0,0,1-2.1-1.38,4.25,4.25,0,0,1-.94-1.88,6.77,6.77,0,0,1-.16-1.88,4.09,4.09,0,0,1,.34-1.44c.19-.4.37-.6.53-.6s.43.18.53.53a2.23,2.23,0,0,0,.85,1.07,5.54,5.54,0,0,0,2.23.85,15,15,0,0,0,4.67-.12,42.38,42.38,0,0,1,3.36-6q1.6-2.29,2.48-2.29a5.71,5.71,0,0,1,1.57.47,13.61,13.61,0,0,1,2.32,1.19,7.41,7.41,0,0,1,1.79,1.54,1,1,0,0,1,0,1.5,14.66,14.66,0,0,0-2.07,3.14"/></clipPath><clipPath id="clip-path-15"><path class="cls-2" d="M237.86,432.18a12.59,12.59,0,0,1,3.54,1.08,32.59,32.59,0,0,1,5.28,2.75,17,17,0,0,1,4.12,3.54q1.52,1.88.22,3.33a39.15,39.15,0,0,0-3.69,5.42q-2.39,4-5.28,9.47t-5.93,11.93q-3,6.44-5.79,13t-4.84,12.65a82.53,82.53,0,0,0-3,10.85,23,23,0,0,0-.51,7.59q.43,2.82,2.89,2.82,1.16,0,3-1.74a42.12,42.12,0,0,0,4-4.41q2.17-2.68,4.48-5.79t4.34-5.79q2-2.67,3.54-4.41t2.24-1.73q2.89,0,3,3a17.72,17.72,0,0,1-1,6.44,63.62,63.62,0,0,1-3.9,9.4,67.67,67.67,0,0,1-8.1,11.86,45.52,45.52,0,0,1-9.11,8.17,20,20,0,0,1-11.57,3.69,7.87,7.87,0,0,1-5.28-1.66,11.69,11.69,0,0,1-3-4,17,17,0,0,1-1.44-4.92,33,33,0,0,1-.36-4.48,60.72,60.72,0,0,1,.43-6.94,59.31,59.31,0,0,1-4.48,9.26,32.61,32.61,0,0,1-4.84,6.36,8.34,8.34,0,0,1-6,2.89,10.41,10.41,0,0,1-4.92-1.3,13.26,13.26,0,0,1-4.48-4.12,24.14,24.14,0,0,1-3.33-7.09,35.72,35.72,0,0,1-1.3-10.34v-2.1a17.34,17.34,0,0,1,.15-2.1q0-.29.22-2.82a62.5,62.5,0,0,1,.94-6.29,46.83,46.83,0,0,1,5.28-14.25,40.37,40.37,0,0,1,7.88-9.84A31.29,31.29,0,0,1,200,466a20.87,20.87,0,0,1,7.74-1.81,8.36,8.36,0,0,1,7,3.33,9.74,9.74,0,0,1,1.37,2.6,7.09,7.09,0,0,1,.44,1.74q2.74-8,5.86-15.19t6-12.65a62.08,62.08,0,0,1,5.35-8.61q2.46-3.18,4-3.18m-26.76,57a55.19,55.19,0,0,0,.43-6.51,16.36,16.36,0,0,0-.58-4.48q-.58-2-2.31-2a8.21,8.21,0,0,0-5.64,2.6,27.7,27.7,0,0,0-5,6.58,52.6,52.6,0,0,0-3.83,8.53,50.85,50.85,0,0,0-2.24,8.53,20.71,20.71,0,0,0-.22,6.58q.43,2.6,2.17,2.6a8.6,8.6,0,0,0,5.71-2.31,29.32,29.32,0,0,0,4.92-5.57,43.21,43.21,0,0,0,3.83-6.8,44.46,44.46,0,0,0,2.31-6.15q.15-.43.43-1.59"/></clipPath><clipPath id="clip-path-16"><path class="cls-2" d="M259.72,526.08a14.55,14.55,0,0,1-5.53-1.54,17.29,17.29,0,0,1-5.47-4.25,23.2,23.2,0,0,1-4.18-7.21,29.22,29.22,0,0,1-1.67-10.43A37,37,0,0,1,246.21,487a49.69,49.69,0,0,1,8.24-12.68,40.74,40.74,0,0,1,10.49-8.49,21.52,21.52,0,0,1,10.23-3.09q6.82,0,9.91,4t1.8,10.56a17.33,17.33,0,0,1-3.67,7.47,39.49,39.49,0,0,1-7.14,7,44.59,44.59,0,0,1-8.62,5.21,19.8,19.8,0,0,1-8.11,2.06,12.61,12.61,0,0,0,.9,7.14q1.42,2.9,5.54,2.9a15.55,15.55,0,0,0,9.78-3.28,41.69,41.69,0,0,0,7.34-7.21A74.37,74.37,0,0,0,288,491.4q2-3.28,3.15-3.28,2.7,0,2.9,2.83a16.89,16.89,0,0,1-1.54,7.14,52.69,52.69,0,0,1-5,9.27,55.62,55.62,0,0,1-7.66,9.2,41.06,41.06,0,0,1-9.53,7,21.32,21.32,0,0,1-10.55,2.57m18.54-58.9a7.59,7.59,0,0,0-4.05,1.35,20.12,20.12,0,0,0-4.18,3.67,36.27,36.27,0,0,0-3.86,5.28q-1.8,3-3.35,6.18a29.38,29.38,0,0,0,8.94-4.31,29.81,29.81,0,0,0,5.92-5.47,10.31,10.31,0,0,0,2.38-4.7q.26-2-1.8-2"/></clipPath><clipPath id="clip-path-17"><path class="cls-2" d="M286.49,509.79a54.8,54.8,0,0,1,.45-14.54,134,134,0,0,1,3.67-16.86q2.44-8.62,5.73-17.06t6.5-15A76.36,76.36,0,0,1,309,435.72q2.9-4.06,4.7-4.05a11.23,11.23,0,0,1,3.15,1,26.84,26.84,0,0,1,4.63,2.44,16.55,16.55,0,0,1,3.6,3.08q1.35,1.61.19,2.89a32.19,32.19,0,0,0-3.22,4.82q-2.06,3.54-4.57,8.35t-5.15,10.6q-2.64,5.78-5,11.56t-4.18,11.18a80.74,80.74,0,0,0-2.64,9.57,19.94,19.94,0,0,0-.45,6.68q.39,2.51,2.57,2.51a4.68,4.68,0,0,0,2.7-1.55,45.3,45.3,0,0,0,3.6-3.8q1.93-2.25,3.93-4.83t3.8-4.83q1.8-2.25,3.09-3.73t1.93-1.48a2.4,2.4,0,0,1,1.87.65,3.43,3.43,0,0,1,.77,1.73,7.19,7.19,0,0,1-.06,2.51,17.39,17.39,0,0,1-.77,2.83,73.15,73.15,0,0,1-3.35,7.85,52.52,52.52,0,0,1-5.79,10.6,38.31,38.31,0,0,1-7.14,7.33,15.21,15.21,0,0,1-9.72,3.31,8.63,8.63,0,0,1-5-1.42A12.5,12.5,0,0,1,289,518a14.29,14.29,0,0,1-1.93-4.31,16.06,16.06,0,0,1-.58-3.93"/></clipPath><clipPath id="clip-path-18"><path class="cls-2" d="M354.46,483.78q2.45,0,2.45,2.57a19.11,19.11,0,0,1-.9,5.53,82.06,82.06,0,0,1-3.22,8,52.33,52.33,0,0,1-6.82,10.3,41.08,41.08,0,0,1-8,7,18.1,18.1,0,0,1-10.43,3.15,8.11,8.11,0,0,1-6.44-2.64,14.9,14.9,0,0,1-3.22-6.95,37.73,37.73,0,0,1-.58-9.85,80.23,80.23,0,0,1,1.48-11.26,100.57,100.57,0,0,1,3-11.26,89.44,89.44,0,0,1,3.8-9.85,35.85,35.85,0,0,1,4.05-6.95q2.06-2.64,3.73-2.64a10.71,10.71,0,0,1,3,.9,29,29,0,0,1,4.44,2.25,14.17,14.17,0,0,1,3.48,2.9,2,2,0,0,1,.13,2.83,40.83,40.83,0,0,0-3.67,5.6,68.72,68.72,0,0,0-3.67,7.59q-1.68,4.06-3,8.17a45.37,45.37,0,0,0-1.74,7.53,14.38,14.38,0,0,0,.13,5.53,2.55,2.55,0,0,0,2.64,2.12q2.32,0,5.15-3.22t5.66-7.08q2.83-3.86,5.08-7.08t3.41-3.22m-13.39-29.86a7.2,7.2,0,0,1-2.7-6.11,13.65,13.65,0,0,1,2.7-7.92,14.32,14.32,0,0,1,6.69-5.08q3.86-1.35,6.56.58A7.06,7.06,0,0,1,357,441.5a13.49,13.49,0,0,1-2.77,7.79,13,13,0,0,1-6.57,5.15q-3.86,1.29-6.56-.52"/></clipPath><clipPath id="clip-path-19"><path class="cls-2" d="M367.67,455.73a11.19,11.19,0,0,1,3.09.9,30.24,30.24,0,0,1,4.57,2.25,13.11,13.11,0,0,1,3.54,3,2.18,2.18,0,0,1,.13,3,29.3,29.3,0,0,0-3.6,6,84.75,84.75,0,0,0-5.92,17.25,49.65,49.65,0,0,0-1.22,8.37,18.55,18.55,0,0,0,.58,6.31,3.22,3.22,0,0,0,3,2.64q3.21.26,5.86-3.22a36.8,36.8,0,0,0,4.76-8.94q2.12-5.47,3.93-11.91t3.28-11.91q1.48-5.47,2.77-9.2T395,456.5a19.16,19.16,0,0,1,4.89.65,21.15,21.15,0,0,1,4.31,1.61,11.25,11.25,0,0,1,3,2.19,3.66,3.66,0,0,1,1.16,2.51,34.53,34.53,0,0,1-1.35,5q-1.35,4.38-3.8,10.55t-5.86,13.19a105,105,0,0,1-7.46,13,48.59,48.59,0,0,1-8.69,9.91q-4.64,3.93-9.4,3.92a14.11,14.11,0,0,1-8.82-2.7,18.65,18.65,0,0,1-5.6-7.14A35.37,35.37,0,0,1,354.54,499a65.8,65.8,0,0,1-.52-11.65,70.6,70.6,0,0,1,1.48-11.65,61,61,0,0,1,3-10.17,24.88,24.88,0,0,1,4.18-7.14q2.38-2.7,5-2.7"/></clipPath><clipPath id="clip-path-20"><path class="cls-2" d="M419.79,523.36a15.42,15.42,0,0,1-5.87-1.64,18.37,18.37,0,0,1-5.8-4.51,24.64,24.64,0,0,1-4.44-7.65,31,31,0,0,1-1.78-11.06,39.25,39.25,0,0,1,3.55-16.6,52.65,52.65,0,0,1,8.74-13.45,43.31,43.31,0,0,1,11.13-9,22.81,22.81,0,0,1,10.86-3.28q7.24,0,10.52,4.23t1.91,11.2a18.37,18.37,0,0,1-3.9,7.92,42,42,0,0,1-7.58,7.44,47.29,47.29,0,0,1-9.15,5.53,21,21,0,0,1-8.61,2.19,13.38,13.38,0,0,0,1,7.58q1.5,3.07,5.87,3.07a16.5,16.5,0,0,0,10.38-3.48,44.24,44.24,0,0,0,7.78-7.65,78.59,78.59,0,0,0,5.4-7.65q2.12-3.48,3.35-3.48,2.87,0,3.07,3a17.92,17.92,0,0,1-1.64,7.58,55.78,55.78,0,0,1-5.32,9.83,59.13,59.13,0,0,1-8.13,9.77A43.57,43.57,0,0,1,431,520.63a22.62,22.62,0,0,1-11.2,2.73m19.67-59a8.06,8.06,0,0,0-4.3,1.44,21.35,21.35,0,0,0-4.44,3.89,38.34,38.34,0,0,0-4.1,5.6q-1.91,3.14-3.55,6.56a31.15,31.15,0,0,0,9.49-4.57,31.62,31.62,0,0,0,6.28-5.81,10.94,10.94,0,0,0,2.53-5q.27-2.11-1.91-2.12"/></clipPath><clipPath id="clip-path-21"><path class="cls-2" d="M502.33,484.51a2.37,2.37,0,0,1,1.94.79,4,4,0,0,1,.79,2.16,11.05,11.05,0,0,1-.15,3q-.29,1.65-.72,3.38a59.48,59.48,0,0,1-3.6,9.35,63.7,63.7,0,0,1-8.06,11.71,44.63,44.63,0,0,1-9,8.12,20.63,20.63,0,0,1-11.44,3.77,9.82,9.82,0,0,1-5.32-1.44,11.14,11.14,0,0,1-3.74-3.89,15.93,15.93,0,0,1-1.94-5.69,19.38,19.38,0,0,1,.21-6.83,36.2,36.2,0,0,1,1.73-6.12q1.44-4.1,3.24-9t3.74-9.93q1.94-5,3.45-9t2.23-6.19q.72-2.23,0-1.51a27.59,27.59,0,0,1-9.5,5.9,63.83,63.83,0,0,1-3.82,8.49q-2.37,4.46-5,8.71t-5,7.84q-2.45,3.6-3.89,6-1.15,1.87-2.16.72a7.49,7.49,0,0,1-1.44-3.67,21.66,21.66,0,0,1-.15-5.61,11.45,11.45,0,0,1,1.44-5q2.16-3.45,4.6-8.13t4.46-9.42A11,11,0,0,1,449.8,468q-1.87-3.6-.29-9.21a15,15,0,0,1,4.61-7.7A12.66,12.66,0,0,1,462.9,448q3.45,0,5,1.51a7,7,0,0,1,1.94,3.66,13,13,0,0,1,.07,4.52q-.36,2.37-.79,4.09l7-3.73q3.24-1.72,4.39-1.73a7,7,0,0,1,3.38,1,12.07,12.07,0,0,1,3.31,2.8,15.81,15.81,0,0,1,2.52,4.31,14.36,14.36,0,0,1,1,5.38,28.41,28.41,0,0,1-1.08,7.11,86.44,86.44,0,0,1-2.66,8.33q-1.58,4.23-3.24,8.4t-2.81,7.4a34.3,34.3,0,0,0-1.51,5.24q-.36,2,.79,2a6.35,6.35,0,0,0,4-1.73,31.16,31.16,0,0,0,4.25-4.39q2.16-2.66,4.32-5.76t4-5.75q1.87-2.66,3.31-4.39t2.3-1.73"/></clipPath><clipPath id="clip-path-22"><rect class="cls-1" x="505.11" y="420.45" width="62.65" height="118.59"/></clipPath><clipPath id="clip-path-23"><rect class="cls-1" x="504.37" y="420.38" width="64" height="119"/></clipPath><clipPath id="clip-path-24"><path class="cls-2" d="M544.55,484.26a67.67,67.67,0,0,0-8.29,9.28,24,24,0,0,0-3.4,6.3,6,6,0,0,0-.08,4.06,8.6,8.6,0,0,0,1.49,2.49l1.41,1.57a.87.87,0,0,1-.08,1.33q-1.33,1.33-4.64,1a21.73,21.73,0,0,1-6.8-1.91,22.63,22.63,0,0,1-6.22-4.14,7.87,7.87,0,0,1-2.74-5.88,15.23,15.23,0,0,1,2.32-8.21,37.63,37.63,0,0,1,5.72-7q3.4-3.31,7.38-6.88a65.88,65.88,0,0,0,7.38-7.79,42.74,42.74,0,0,0,5.72-9.45A30.19,30.19,0,0,0,546,446.64a53.48,53.48,0,0,0-.33-5.72,21.27,21.27,0,0,0-1.41-5.72,11.1,11.1,0,0,0-3.15-4.39,9.38,9.38,0,0,0-13.34,2.57q-2.82,4.31-2.82,11.1a15.4,15.4,0,0,0,1,5.88,26.46,26.46,0,0,0,2,4q1,1.58,1.57,2.57a1.16,1.16,0,0,1-.25,1.66,10.5,10.5,0,0,1-7.37,2.24,17.78,17.78,0,0,1-8-2.4,20.43,20.43,0,0,1-6.3-5.64,12.53,12.53,0,0,1-2.57-7.62,21,21,0,0,1,2-8.7,24.46,24.46,0,0,1,5.89-8,30.54,30.54,0,0,1,9.61-5.8,36,36,0,0,1,13.18-2.24,42.36,42.36,0,0,1,14.92,2.32,27.15,27.15,0,0,1,9.94,6.22,23.06,23.06,0,0,1,5.47,8.78,30.6,30.6,0,0,1,1.66,9.86,30.17,30.17,0,0,1-2.07,11.52,40.45,40.45,0,0,1-5.3,9.28,59.53,59.53,0,0,1-7.46,8q-4.22,3.82-8.37,7.79m-24.36,32a14.44,14.44,0,0,1,5.14.33,31.84,31.84,0,0,1,5.88,1.83,13.46,13.46,0,0,1,4.31,2.73q1.57,1.58.25,3.07a10.71,10.71,0,0,0-1.74,3.07,16,16,0,0,0-1,3.9,15.1,15.1,0,0,0-.08,3.48,2.46,2.46,0,0,0,1,2q1.16.84-1.24,1.74a13.67,13.67,0,0,1-6,.58,17.46,17.46,0,0,1-7.13-2.32q-3.48-2-4.31-7-.83-6.3.83-9.69t4.14-3.73"/></clipPath><clipPath id="clip-path-26"><path class="cls-2" d="M321.5,399.61c-84.79,3.14-172.16,2.71-201.56-19.5-12.05-9.85,3.75,32.33,88.93,38,33.66,2.24,71.82,2.56,109.71,2.23-1-6.32.81-14.67,2.92-20.73"/></clipPath><clipPath id="clip-path-27"><rect class="cls-1" x="485.35" y="386.59" width="113.4" height="48.89"/></clipPath><clipPath id="clip-path-28"><rect class="cls-1" x="484.37" y="380.38" width="121" height="61"/></clipPath><clipPath id="clip-path-29"><path class="cls-2" d="M518.55,387.26c-8.31.66-18.55,2-30.26,3.9-3.91.92-3.74,23.87-.52,24.33,15-2.14,28.31-3.78,39.31-4.66,63.82-5.09,61.11,29.89,67.75,24,8.9-6.37,9.65-54.4-76.29-47.54"/></clipPath><clipPath id="clip-path-30"><rect class="cls-1" x="484.37" y="386.38" width="115" height="50"/></clipPath></defs><title>what-does-it-deliver</title><g id="Warstwa_2" data-name="Warstwa 2"><g id="Warstwa_1-2" data-name="Warstwa 1"><g class="cls-3"><rect class="cls-4" width="722.1" height="722.1"/></g><g class="cls-5"><g class="cls-6"><g class="cls-7"><g class="cls-8"><g class="cls-7"><rect class="cls-9" x="129.55" y="177.79" width="268.67" height="222.59"/></g></g></g></g></g><g class="cls-10"><rect class="cls-9" x="323.98" y="224.91" width="119.68" height="156.47"/></g><g class="cls-11"><rect class="cls-9" x="409.93" y="266.95" width="114.14" height="114.43"/></g><g class="cls-12"><rect class="cls-9" x="483.24" y="225.1" width="90.2" height="156.18"/></g><g class="cls-13"><rect class="cls-9" x="320.8" y="373.23" width="52.45" height="64.74"/></g><g class="cls-14"><rect class="cls-9" x="347.28" y="386.47" width="50.77" height="50.95"/></g><g class="cls-15"><rect class="cls-9" x="372.82" y="386.53" width="44.95" height="50.87"/></g><g class="cls-16"><rect class="cls-9" x="395.03" y="386.4" width="39.01" height="51"/></g><g class="cls-17"><rect class="cls-9" x="424.15" y="366.92" width="42.21" height="70.48"/></g><g class="cls-18"><rect class="cls-9" x="439" y="372.85" width="42.95" height="64.52"/></g><g class="cls-19"><rect class="cls-9" x="166.83" y="422.18" width="94.8" height="123.13"/></g><g class="cls-20"><rect class="cls-9" x="232.86" y="452.76" width="71.18" height="83.33"/></g><g class="cls-21"><rect class="cls-9" x="276.2" y="421.66" width="59.58" height="111.26"/></g><g class="cls-22"><rect class="cls-9" x="307.24" y="424.25" width="59.73" height="106.08"/></g><g class="cls-23"><rect class="cls-9" x="343.96" y="445.72" width="74.38" height="83.33"/></g><g class="cls-24"><rect class="cls-9" x="391.89" y="446.16" width="74.31" height="87.2"/></g><g class="cls-25"><rect class="cls-9" x="434.65" y="437.96" width="80.46" height="98.86"/></g><g class="cls-26"><g class="cls-6"><g class="cls-27"><g class="cls-28"><g class="cls-27"><rect class="cls-9" x="495.11" y="410.45" width="82.65" height="138.59"/></g></g></g></g></g><g class="cls-29"><rect class="cls-9" x="106.37" y="368.63" width="225.13" height="61.82"/></g><g class="cls-30"><g class="cls-6"><g class="cls-31"><g class="cls-32"><g class="cls-33"><rect class="cls-9" x="475.35" y="376.59" width="133.4" height="68.89"/></g></g></g></g></g></g></g></svg>