<svg xmlns="http://www.w3.org/2000/svg" xmlns:xlink="http://www.w3.org/1999/xlink" width="448.98" height="274.18" viewBox="0 0 448.98 274.18"><defs><style>.cls-1,.cls-2{fill:none;}.cls-1{clip-rule:evenodd;}.cls-3{clip-path:url(#clip-path);}.cls-4{clip-path:url(#clip-path-2);}.cls-5{fill:#552a22;}.cls-6{clip-path:url(#clip-path-3);}.cls-7{clip-path:url(#clip-path-5);}.cls-8{clip-path:url(#clip-path-7);}.cls-9{clip-path:url(#clip-path-9);}.cls-10{clip-path:url(#clip-path-11);}.cls-11{clip-path:url(#clip-path-13);}.cls-12{clip-path:url(#clip-path-15);}.cls-13{clip-path:url(#clip-path-17);}.cls-14{isolation:isolate;}.cls-15{clip-path:url(#clip-path-19);}.cls-16{clip-path:url(#clip-path-20);}.cls-17{clip-path:url(#clip-path-21);}</style><clipPath id="clip-path" transform="translate(-422 -1596)"><path class="cls-1" d="M432,1725.56a14,14,0,0,0,.4-2.27,89.47,89.47,0,0,1,6.61-31.58c5.35-13.61,12.93-25.76,23.72-35.76,5.77-5.35,12.09-9.86,19.72-12.21,6.3-2,12.64-2.25,18.28,1.61,3.4,2.33,7.05,4.1,10.59,6.12a59.92,59.92,0,0,1,12.67,9.84c3.36,3.35,4.61,7.63,5.23,12.13a113.23,113.23,0,0,1,.25,26.87c-.86,8.53-1.79,17.06-3.1,25.54-1.65,10.68-3.7,21.3-5.63,31.94-.92,5.08-2,10.13-3,15.2a4,4,0,0,0,0,.86,3.09,3.09,0,0,0,.73-.45,63.12,63.12,0,0,0,9.33-13.06A189.08,189.08,0,0,0,542,1726.75a345.08,345.08,0,0,0,12.7-51.57c.87-5.36,1.88-10.79,1-16.28-.19-1.24.49-1.28,1.32-1.28,5.11,0,9.86,1.1,13.92,4.42a18,18,0,0,1,7,13c.19,2.53.3,5.07.44,7.6.55,10,1,20.07,1.68,30.1.55,8.46,1.33,16.92,1.93,25.38.46,6.42.8,12.85,1.2,19.28a4.53,4.53,0,0,0,.17.73,4.4,4.4,0,0,0,.38-.73c1.73-5.37,3.48-10.74,5.15-16.13,6.45-20.73,12.73-41.51,19.38-62.18a273.38,273.38,0,0,1,16.42-40.58,105.47,105.47,0,0,1,13.61-21.08c4.05-4.73,8.56-8.83,14.79-10.5,6-1.6,11.76-1.33,17.2,2,6.23,3.77,8.91,9.6,9.45,16.57a21.49,21.49,0,0,1-.44,6.64c-.74,3-1.88,3.26-4.2,1.26-4.44-3.83-8.14-4.1-13-.92-4.36,2.85-7.32,7-10.09,11.24-5.17,8-9,16.62-12.58,25.36-7.86,19-13.95,38.63-19.93,58.29-6.49,21.33-12.86,42.7-19.38,64a121.5,121.5,0,0,1-4.53,12c-2.13,5-3.54,5.51-8.19,2.58s-8.77-6.16-13.11-9.3c-1.11-.79-2.07-1.79-3.2-2.56-2.79-1.9-3.89-4.64-4.46-7.85a330,330,0,0,1-4.15-33.06c-.59-8-1.05-16-1.59-23.94a6.45,6.45,0,0,0-.33-1.23c-.15.34-.3.68-.43,1-3.46,9.31-6.62,18.74-10.44,27.89-5.79,13.85-12.19,27.43-20.45,40-1.76,2.68-3.77,5.21-5.76,7.73a6.41,6.41,0,0,1-8.05,2.19c-4.77-1.81-9.26-3.94-13-7.67-2.87-2.89-6.3-5.23-9.3-8a51.19,51.19,0,0,1-5.22-5.9,6.36,6.36,0,0,1-1.21-5.77c2.16-8.79,4.16-17.62,6.33-26.41a401.48,401.48,0,0,0,8.32-40.93c1.57-11.32,2.43-22.71,1.26-34.14-.74-7.18-1.93-14.31-5.86-20.6a42.38,42.38,0,0,0-3.47-4.7c-2.09-2.5-4.12-2.8-6.5-.51a37.4,37.4,0,0,0-5.72,7c-5.43,8.64-8.95,18.15-12.1,27.79a152.73,152.73,0,0,0-7.37,33.61,86.44,86.44,0,0,0,.16,14.59,22,22,0,0,0,6.38,13.5l.8.86c2.21,2.38,1.68,4.51-1.56,5a14.41,14.41,0,0,1-6.33-.45c-10.41-3.24-19.34-8.67-25.52-18a17.12,17.12,0,0,1-3.24-9,3.66,3.66,0,0,0-.39-1.07Z"/></clipPath><clipPath id="clip-path-2" transform="translate(-422 -1596)"><rect class="cls-2" width="2720" height="11888"/></clipPath><clipPath id="clip-path-3" transform="translate(-422 -1596)"><path class="cls-1" d="M625.71,1758.44a136.6,136.6,0,0,1,3.84-25.13,351.21,351.21,0,0,1,19.79-59.2,156.32,156.32,0,0,1,11-21.6,54.23,54.23,0,0,1,3.42-4.73,4.07,4.07,0,0,1,5.15-1.43c4.78,1.83,9.27,4.09,13,7.71,2.57,2.53,2.73,3.78,1.23,7q-7.37,15.9-14.68,31.83a20.17,20.17,0,0,0-.89,2.16,11.39,11.39,0,0,0-.3,1.59,12.94,12.94,0,0,0,1.43-.87,35.71,35.71,0,0,1,15.67-7.46c8.95-1.63,16.09,3.31,17.79,12.2,1.17,6.15.24,12.06-1.68,17.85-2.61,7.85-5.49,15.61-8.15,23.44-1.06,3.13-1.9,6.33-2.78,9.52a8,8,0,0,0-.24,2.32c.08,2.75,1.93,3.89,4.37,2.56a11.9,11.9,0,0,0,3.4-2.73c4.42-5.33,8.71-10.76,13.09-16.12a17.2,17.2,0,0,0,3.25-6.43c4-14.09,12.48-24.95,24.24-33.4a56.79,56.79,0,0,1,19.77-9.15c5.09-1.24,10.06-1,14.7,1.72a12.06,12.06,0,0,1,6.24,10c.36,5.26-.4,10.33-3.36,14.84-.79,1.19-.78,1.64.66,2.25a19.45,19.45,0,0,1,5,2.94c2.2,1.84,2.31,3.4.48,5.52a62.61,62.61,0,0,0-10.23,17.61,70.81,70.81,0,0,0-2.33,8.13,5.59,5.59,0,0,0-.14,1.45c0,3.42,1.89,4.81,5.13,3.77,2.72-.87,4.69-2.85,6.46-4.88,3-3.47,5.76-7.13,8.52-10.79a7,7,0,0,0,1.19-2.93c2.94-16.57,8.15-32.46,14.33-48.07.91-2.29.9-2.32-1.72-2.35a22.42,22.42,0,0,1-10.68-2.59,12.71,12.71,0,0,1-7-10.78,38.7,38.7,0,0,1,.52-7.22,4.73,4.73,0,0,1,1-2.06c.68-.92,1.47-.79,2.16.07a2,2,0,0,1,.32.48c1.61,4.13,5.31,5.18,9.06,6,4.35,1,8.74.29,13.11,0,1.41-.11,1.88-1.13,2.46-2.18,2.88-5.2,5.71-10.42,8.78-15.5a42.19,42.19,0,0,1,4.75-5.91,4.65,4.65,0,0,1,5.55-1.36,42.87,42.87,0,0,1,12.31,6.58,18.68,18.68,0,0,1,2.31,2.23c1.93,2.21,1.86,3.3.14,5.66s-3.24,4.63-4.73,7c-1.1,1.76-1,1.87.85,2.62a16.88,16.88,0,0,1,9.35,8.39,23.15,23.15,0,0,1,1.65,5.26,6.57,6.57,0,0,1-.22,2.88c-.45,1.75-1.33,2.14-2.7,1.08-5.23-4-11.32-3.62-17.36-3.57-1.17,0-1.38.94-1.74,1.69-2.66,5.64-5.34,11.26-7.9,16.94a281.59,281.59,0,0,0-11.7,29.91c-1.75,5.47-3.36,11-3.48,16.82a16.16,16.16,0,0,0,.22,3.49c.61,3,3.1,4.05,5.74,2.37a18.28,18.28,0,0,0,2.67-2.27c5.65-5.45,10.12-11.87,14.85-18.07,2.07-2.71,4.21-5.37,6.4-8,1-1.21,2.1-2.35,4-1.61a3.8,3.8,0,0,1,2.46,4,27.88,27.88,0,0,1-1.09,7.18,80.62,80.62,0,0,1-24.69,37.64,28.08,28.08,0,0,1-13.49,6.61c-6.07,1.08-9.7-.3-12.87-5.58a52.92,52.92,0,0,1-3.65-8.23c-.79-2-.68-2.1-2.09-.58a61.25,61.25,0,0,1-11.78,10,30.06,30.06,0,0,1-13.08,4.7c-6.55.71-10.29-1.55-12.84-7.66-1.66-4-1.86-8.13-1.72-12.35a4.09,4.09,0,0,0-.12-.77,2.8,2.8,0,0,0-.68.49c-1.59,2.22-3,4.58-4.78,6.63a74.3,74.3,0,0,1-6.81,6.82c-2.88,2.55-6.26,2.91-9.86,1.66a16,16,0,0,1-8.84-7.29,71.71,71.71,0,0,1-3.72-7.9c-.42-1-.66-.91-1.26-.21-2.48,2.88-4.83,5.89-7.51,8.58A42,42,0,0,1,688,1780.39a32.53,32.53,0,0,1-5.7,1.26c-6.66.92-11-2.58-14.05-7.92a28.94,28.94,0,0,1-3.72-15.44,60.68,60.68,0,0,1,3.33-18c2.51-7.47,5.3-14.85,7.91-22.29,1.09-3.12,2.06-6.29,3.06-9.44a7.57,7.57,0,0,0,.29-1.43c.42-3.62-.88-4.79-4.35-3.46a17.33,17.33,0,0,0-5.35,3.42c-4.52,4.16-7.51,9.45-10.14,14.91a125.8,125.8,0,0,0-11.47,38.77c-.5,3.86-.56,7.78-.85,11.67a34.82,34.82,0,0,1-.49,4.35c-.38,1.84-.93,2.19-2.83,2.26a16.28,16.28,0,0,1-17.19-13.89c-.38-2.2-.51-4.44-.75-6.67m107.71-18.31c.34,2.38.44,4,.83,5.64,1,4,4,5.52,7.76,3.89a9.65,9.65,0,0,0,3.5-2.51,33.94,33.94,0,0,0,4.46-6.46c2.32-4.7,4.27-9.58,6.44-14.36.48-1,0-1.5-.64-2.2-1.5-1.59-1.57-2.92-.41-4.73a25.65,25.65,0,0,1,1.95-2.55c2-2.38,4.08-4.72,6-7.14a10.66,10.66,0,0,0,1.78-3c.67-1.82,0-3-2-2.87a27.08,27.08,0,0,0-7.15,1c-4.66,1.54-8.21,4.77-11.27,8.52a50.93,50.93,0,0,0-9,16.59,103.27,103.27,0,0,0-2.32,10.12"/></clipPath><clipPath id="clip-path-5" transform="translate(-422 -1596)"><path class="cls-1" d="M624.41,1829.58c1.08-.06,1.65.48,1.71,1.61a12.77,12.77,0,0,1-.4,3.7,55,55,0,0,1-1.84,5.39,34.54,34.54,0,0,1-4.14,7,27,27,0,0,1-5,4.93,12,12,0,0,1-6.78,2.46,5.36,5.36,0,0,1-4.35-1.52,9.89,9.89,0,0,1-2.38-4.48,25,25,0,0,1-.74-6.49,53.54,53.54,0,0,1,.58-7.51,67,67,0,0,1,1.56-7.55,59.43,59.43,0,0,1,2.16-6.65,23.66,23.66,0,0,1,2.43-4.74c.84-1.21,1.64-1.84,2.37-1.88a7.08,7.08,0,0,1,2,.49,19.26,19.26,0,0,1,3,1.33,9.33,9.33,0,0,1,2.4,1.79,1.3,1.3,0,0,1,.19,1.87,27.6,27.6,0,0,0-2.23,3.83,45.74,45.74,0,0,0-2.15,5.16q-1,2.73-1.67,5.51a30.33,30.33,0,0,0-.88,5,9.56,9.56,0,0,0,.28,3.66,1.68,1.68,0,0,0,1.82,1.31q1.53-.09,3.29-2.31t3.49-4.89q1.73-2.66,3.11-4.86t2.14-2.25m-9.92-19.28a4.76,4.76,0,0,1-2-3.94A9.07,9.07,0,0,1,614,1801a9.52,9.52,0,0,1,4.25-3.6,4.52,4.52,0,0,1,4.36.15,4.67,4.67,0,0,1,2,3.95,8.93,8.93,0,0,1-1.55,5.25,8.61,8.61,0,0,1-4.16,3.64,4.77,4.77,0,0,1-4.36-.11"/></clipPath><clipPath id="clip-path-7" transform="translate(-422 -1596)"><path class="cls-1" d="M642.53,1810.84c3,.29,5.08,1.32,6.31,3.07a11.53,11.53,0,0,1,2,6.13,12.28,12.28,0,0,1-.4,3.65,16,16,0,0,1-1.38,3.62,9.57,9.57,0,0,1-2.16,2.76,4.44,4.44,0,0,1-2.71,1.17,3.43,3.43,0,0,1-2.66-1,7.11,7.11,0,0,1-1.66-2.39,4.71,4.71,0,0,1-.39-2.45c.1-.77.46-1.18,1.09-1.21a4.61,4.61,0,0,0,3-1.4,8.61,8.61,0,0,0,2-2.89,4.17,4.17,0,0,0,.28-2.79c-.24-.81-.9-1.19-2-1.13a6.62,6.62,0,0,0-5.65,3,10.61,10.61,0,0,0-1.53,6.4,7.87,7.87,0,0,0,1.37,4.06q1.25,1.86,2.77,3.78a40.71,40.71,0,0,1,2.82,4.08,10.75,10.75,0,0,1-1.28,12.62q-3,3.15-8.61,3.45a7.45,7.45,0,0,1-4.75-1,5.57,5.57,0,0,1-2.2-2.7,4.12,4.12,0,0,1,0-2.82,1.9,1.9,0,0,1,1.76-1.38c.34,0,.53.12.58.4s.07.58.09.89a1.72,1.72,0,0,0,.3.88c.19.28.65.39,1.39.35a2,2,0,0,0,1.94-1.21,6.32,6.32,0,0,0,.4-2.84A7.87,7.87,0,0,0,632,1840q-1.21-1.86-2.6-3.87a44.56,44.56,0,0,1-2.63-4.34,12.4,12.4,0,0,1-1.39-5.22,14.15,14.15,0,0,1,1.1-6.42,15.1,15.1,0,0,1,3.65-5.2,15.67,15.67,0,0,1,5.54-3.28,16.43,16.43,0,0,1,6.87-.8"/></clipPath><clipPath id="clip-path-9" transform="translate(-422 -1596)"><path class="cls-1" d="M700.1,1825.49q1.62-.09,1.71,1.62a12.74,12.74,0,0,1-.4,3.69,54.73,54.73,0,0,1-1.84,5.39,34.67,34.67,0,0,1-4.14,7.06,27.24,27.24,0,0,1-5,4.92,12,12,0,0,1-6.78,2.46,5.36,5.36,0,0,1-4.35-1.52,9.83,9.83,0,0,1-2.38-4.48,24.94,24.94,0,0,1-.73-6.49,53.12,53.12,0,0,1,.58-7.5,66.94,66.94,0,0,1,1.56-7.56,59.61,59.61,0,0,1,2.16-6.65,23.94,23.94,0,0,1,2.43-4.74c.85-1.21,1.64-1.84,2.38-1.88a7.12,7.12,0,0,1,2,.49,19.13,19.13,0,0,1,3,1.33,9.58,9.58,0,0,1,2.4,1.79,1.3,1.3,0,0,1,.19,1.87,27.26,27.26,0,0,0-2.23,3.84,44.84,44.84,0,0,0-2.15,5.15q-1,2.75-1.67,5.51a30.31,30.31,0,0,0-.88,5,9.54,9.54,0,0,0,.28,3.66,1.69,1.69,0,0,0,1.82,1.31q1.53-.07,3.29-2.31t3.49-4.89q1.73-2.65,3.11-4.86t2.14-2.25m-15.39-20.37a4.77,4.77,0,0,1-2-4,9.06,9.06,0,0,1,1.51-5.33,9.5,9.5,0,0,1,4.25-3.6,4.51,4.51,0,0,1,4.36.15,4.67,4.67,0,0,1,2,4,8.92,8.92,0,0,1-1.55,5.25,8.61,8.61,0,0,1-4.16,3.64,4.77,4.77,0,0,1-4.36-.11"/></clipPath><clipPath id="clip-path-11" transform="translate(-422 -1596)"><path class="cls-1" d="M721.87,1798.61a8.34,8.34,0,0,1,3.86,2,8,8,0,0,1,1.9,2.72,5.12,5.12,0,0,1,.43,2.41c-.08.68-.29,1-.62,1.06a1,1,0,0,1-.7-.35,3.58,3.58,0,0,0-1.23-.7,9.86,9.86,0,0,0-2.5-.51,21.39,21.39,0,0,0-4.43.16q-1.45,3.31-2.91,7.07t-2.72,7.4q-1.26,3.66-2.14,7a45,45,0,0,0-1.22,5.83,11,11,0,0,0,0,4,1.6,1.6,0,0,0,1.74,1.4,3.09,3.09,0,0,0,1.73-1.12,31.54,31.54,0,0,0,2.29-2.68q1.24-1.61,2.5-3.51l2.33-3.5c.71-1.06,1.35-2,1.91-2.66s1-1.08,1.26-1.1a1.51,1.51,0,0,1,1.26.41,2.29,2.29,0,0,1,.53,1.21,6.23,6.23,0,0,1,0,1.75,13.89,13.89,0,0,1-.4,2,45.62,45.62,0,0,1-1.92,5.57,42.08,42.08,0,0,1-4.63,7.59c-.75,1-1.54,1.88-2.37,2.78a16.43,16.43,0,0,1-2.73,2.37,13.89,13.89,0,0,1-3.07,1.61,8.07,8.07,0,0,1-3.3.52,3.77,3.77,0,0,1-2.53-1,9.55,9.55,0,0,1-2-2.67,17.43,17.43,0,0,1-1.39-3.6,18.63,18.63,0,0,1-.63-3.85,40.62,40.62,0,0,1,.27-6.89q.44-3.74,1.24-7.79t2-8.18q1.18-4.11,2.52-7.94a12.85,12.85,0,0,1-4.89-.38,7,7,0,0,1-3-1.72,5.72,5.72,0,0,1-1.41-2.49,9.05,9.05,0,0,1-.35-2.54,5.51,5.51,0,0,1,.36-2c.23-.55.45-.84.68-.85s.6.21.76.68a3,3,0,0,0,1.23,1.39,7.53,7.53,0,0,0,3.08,1,20.46,20.46,0,0,0,6.33-.52,57.49,57.49,0,0,1,4.12-8.37q2-3.23,3.19-3.29a7.56,7.56,0,0,1,2.16.52,18.45,18.45,0,0,1,3.24,1.45,10.17,10.17,0,0,1,2.54,2,1.43,1.43,0,0,1,.15,2,19.66,19.66,0,0,0-2.58,4.4"/></clipPath><clipPath id="clip-path-13" transform="translate(-422 -1596)"><path class="cls-1" d="M750.92,1819.5a34.19,34.19,0,0,0-4,5,12.29,12.29,0,0,0-1.57,3.33,3.08,3.08,0,0,0,.07,2.08,4.48,4.48,0,0,0,.83,1.24l.77.77a.44.44,0,0,1,0,.68,2.91,2.91,0,0,1-2.36.64,11,11,0,0,1-3.54-.79,11.51,11.51,0,0,1-3.31-2,4,4,0,0,1-1.57-2.94,7.83,7.83,0,0,1,1-4.28,19.33,19.33,0,0,1,2.74-3.78c1.1-1.2,2.3-2.44,3.6-3.74a33.48,33.48,0,0,0,3.57-4.2,22,22,0,0,0,2.68-5,15.58,15.58,0,0,0,.85-6.41,27.58,27.58,0,0,0-.33-2.93,11.07,11.07,0,0,0-.88-2.9,5.71,5.71,0,0,0-1.74-2.16,4.41,4.41,0,0,0-3-.74,4.47,4.47,0,0,0-3.8,2.43,10.21,10.21,0,0,0-1.14,5.78,7.84,7.84,0,0,0,.67,3,13.12,13.12,0,0,0,1.13,2c.37.52.66,1,.88,1.28a.6.6,0,0,1-.08.86,5.43,5.43,0,0,1-3.73,1.35,9.17,9.17,0,0,1-4.15-1,10.43,10.43,0,0,1-3.39-2.71,6.48,6.48,0,0,1-1.53-3.85,10.83,10.83,0,0,1,.78-4.53,12.48,12.48,0,0,1,2.8-4.24,15.52,15.52,0,0,1,4.78-3.25,18.58,18.58,0,0,1,6.71-1.52,21.82,21.82,0,0,1,7.73.78,14,14,0,0,1,5.28,2.92,11.79,11.79,0,0,1,3.05,4.36,15.76,15.76,0,0,1,1.12,5,15.53,15.53,0,0,1-.74,6,20.93,20.93,0,0,1-2.47,4.92,30.23,30.23,0,0,1-3.61,4.33q-2.07,2.09-4.08,4.24m-11.63,17.1a7.39,7.39,0,0,1,2.65,0,16.16,16.16,0,0,1,3.07.78,6.79,6.79,0,0,1,2.29,1.28,1,1,0,0,1,.21,1.57,5.57,5.57,0,0,0-.81,1.62,8.41,8.41,0,0,0-.4,2,7.63,7.63,0,0,0,.05,1.79,1.28,1.28,0,0,0,.57,1c.41.26.21.57-.59.92a6.93,6.93,0,0,1-3.09.47,9,9,0,0,1-3.72-1,4.7,4.7,0,0,1-2.41-3.45,8.93,8.93,0,0,1,.16-5q.76-1.8,2-2"/></clipPath><clipPath id="clip-path-15" transform="translate(-422 -1596)"><path class="cls-1" d="M586.57,1834.21c-9.7,1.47-19.41,2.89-29.15,4.14-17.09,2.2-34.22,4.79-51.56,2.32-10.46-1.49-19.64-5.16-26.65-13.51-3.35-4-5.88-3.43-7.71,1.41a22.65,22.65,0,0,0-.91,4.93c.73,7.94,4.27,13.36,10,16.49a80.85,80.85,0,0,0,19.45,7.73c14.07,3.38,28.49,2.89,42.68.87,14.62-2.08,29.22-4.34,43.8-6.68-1-5.5-.65-12.12,0-17.7"/></clipPath><clipPath id="clip-path-17" transform="translate(-422 -1596)"><rect class="cls-2" x="760.88" y="1806.68" width="100.1" height="18.32"/></clipPath><clipPath id="clip-path-19" transform="translate(-422 -1596)"><rect class="cls-2" x="760" y="1805" width="101" height="21"/></clipPath><clipPath id="clip-path-20" transform="translate(-422 -1596)"><path class="cls-1" d="M859.59,1821.82c-6.4-3.3-12.65-7.23-19.44-9.41-17.06-5.48-34.84-6.6-52.55-5.15q-7,.57-14,1.24c-3.51,4.66-8.75,10.43-12.73,15.22,13.44-1.55,26.93-2.79,40.46-3.58,19.06-1.11,38.12-1.75,56.57,4.75.88.31,2-.13,3.06-.23-.45-1-.63-2.45-1.38-2.84"/></clipPath><clipPath id="clip-path-21" transform="translate(-422 -1596)"><rect class="cls-2" x="760" y="1806" width="101" height="20"/></clipPath></defs><title>what-it-is</title><g id="Warstwa_2" data-name="Warstwa 2"><g id="Warstwa_1-2" data-name="Warstwa 1"><g class="cls-3"><g class="cls-4"><rect class="cls-5" width="267.86" height="221.77"/></g></g><g class="cls-6"><g class="cls-4"><rect class="cls-5" x="193.71" y="39.97" width="248.59" height="155.83"/></g></g><g class="cls-7"><g class="cls-4"><rect class="cls-5" x="168.46" y="190.94" width="45.67" height="77.79"/></g></g><g class="cls-8"><g class="cls-4"><rect class="cls-5" x="193.34" y="204.77" width="45.56" height="62.57"/></g></g><g class="cls-9"><g class="cls-4"><rect class="cls-5" x="244.15" y="185.76" width="45.67" height="78.88"/></g></g><g class="cls-10"><g class="cls-4"><rect class="cls-5" x="264.6" y="182.24" width="51.48" height="81.07"/></g></g><g class="cls-11"><g class="cls-4"><rect class="cls-5" x="297.55" y="180.92" width="52.29" height="81.18"/></g></g><g class="cls-12"><g class="cls-4"><rect class="cls-5" x="38.59" y="218.5" width="135.98" height="55.68"/></g></g><g class="cls-13"><g class="cls-4"><g class="cls-14"><g class="cls-15"><g class="cls-16"><g class="cls-17"><rect class="cls-5" x="328.88" y="200.68" width="120.1" height="38.32"/></g></g></g></g></g></g></g></g></svg>